<?xml version="1.0" encoding="UTF-8" standalone="no"?><!DOCTYPE svg PUBLIC "-//W3C//DTD SVG 1.1//EN" "http://www.w3.org/Graphics/SVG/1.1/DTD/svg11.dtd"><svg width="100%" height="100%" viewBox="0 0 8 8" version="1.1" xmlns="http://www.w3.org/2000/svg" xmlns:xlink="http://www.w3.org/1999/xlink" xml:space="preserve" xmlns:serif="http://www.serif.com/" style="fill-rule:evenodd;clip-rule:evenodd;stroke-linejoin:round;stroke-miterlimit:2;"><g><path d="M5.452,0.632c0.346,-0.345 0.829,-0.555 1.447,-0.632c0.35,0.543 0.394,1.105 0.145,1.685c0.198,0.309 0.302,0.664 0.296,1.049c-0.018,1.233 -0.853,2.014 -2.177,2.197c0.324,0.228 0.535,0.6 0.535,1.02l0.051,2.045c-0.019,0.009 -2.665,0 -2.665,0l0.021,-1.331c-0.04,0.024 -0.086,0.047 -0.137,0.067c-0.203,0.073 -1.035,0.167 -1.462,-0.455c-0.2,-0.29 -0.295,-0.568 -0.601,-0.746c-0.371,-0.216 -0.308,-0.302 0.092,-0.247c0.372,0.074 0.559,0.198 0.713,0.389c0.604,0.751 1.349,0.101 1.47,-0.105c0.091,-0.277 0.277,-0.512 0.52,-0.668c-1.271,-0.231 -2.086,-1.007 -2.088,-2.166c-0.001,-0.367 0.092,-0.709 0.262,-1.009c-0.269,-0.594 -0.231,-1.17 0.127,-1.725c0.603,0.075 1.078,0.277 1.422,0.608c0.32,-0.085 0.674,-0.125 1.053,-0.112c0.352,0.012 0.679,0.059 0.976,0.136Zm-0.332,6.865l-1.417,-0c-0.008,-0.566 -0.019,-1.412 -0.019,-1.434c-0,-0.486 0.274,-0.74 0.725,-0.74c0.45,0 0.685,0.245 0.711,0.74l-0,1.434Zm-0.644,-6.371c1.384,0.047 2.187,0.682 2.173,1.675c-0.017,1.146 -0.821,1.577 -2.173,1.56c-1.345,-0.016 -2.096,-0.457 -2.098,-1.56c-0.002,-1.045 0.77,-1.719 2.098,-1.675Zm-1.67,-0.28c-0.211,0.111 -0.398,0.246 -0.558,0.4l-0.047,-0.051c-0.146,-0.267 -0.096,-0.466 0.064,-0.714c0.313,0.039 0.496,0.104 0.637,0.313c-0.032,0.017 -0.064,0.034 -0.096,0.052Zm3.836,0.381l0.03,-0.032c0.146,-0.267 0.096,-0.455 -0.063,-0.704c-0.314,0.039 -0.496,0.094 -0.638,0.303c0.067,0.034 0.131,0.071 0.194,0.111c0.177,0.094 0.337,0.202 0.477,0.322Z" style="fill:#d1c5b6;"/></g></svg>