<?xml version="1.0" encoding="UTF-8" standalone="no"?><!DOCTYPE svg PUBLIC "-//W3C//DTD SVG 1.1//EN" "http://www.w3.org/Graphics/SVG/1.1/DTD/svg11.dtd"><svg width="100%" height="100%" viewBox="0 0 8 8" version="1.1" xmlns="http://www.w3.org/2000/svg" xmlns:xlink="http://www.w3.org/1999/xlink" xml:space="preserve" xmlns:serif="http://www.serif.com/" style="fill-rule:evenodd;clip-rule:evenodd;stroke-linecap:round;stroke-linejoin:round;stroke-miterlimit:1.5;"><g><g><g><g><path d="M6.1,1.232c-0,-0.58 -0.471,-1.051 -1.051,-1.05l-2.098,-0c-0.58,-0.001 -1.051,0.47 -1.051,1.05l-0,5.536c-0,0.58 0.471,1.051 1.051,1.05l2.098,0c0.58,0.001 1.051,-0.47 1.051,-1.05l-0,-5.536Z" style="fill:#0b0806;stroke:#0b0806;stroke-width:0.28px;"/><path d="M5.893,1.389c-0,-0.522 -0.425,-0.947 -0.947,-0.947l-1.892,0c-0.522,0 -0.947,0.425 -0.947,0.947l0,5.223c0,0.522 0.425,0.947 0.947,0.947l1.892,-0c0.522,-0 0.947,-0.425 0.947,-0.947l-0,-5.223Z" style="fill:#0b0806;stroke:#d1c5b6;stroke-width:0.27px;"/><path d="M5.893,1.389c-0,-0.522 -0.425,-0.947 -0.947,-0.947l-1.892,0c-0.522,0 -0.947,0.425 -0.947,0.947l0,5.223c0,0.522 0.425,0.947 0.947,0.947l1.892,-0c0.522,-0 0.947,-0.425 0.947,-0.947l-0,-5.223Z" style="fill:none;stroke:#898d9b;stroke-width:0.08px;"/><g><path d="M4,1.492c0.771,0 1.397,0.644 1.397,1.436c0,0.793 -0.626,1.435 -1.397,1.436c-0.771,-0.001 -1.397,-0.643 -1.397,-1.436c-0,-0.792 0.626,-1.436 1.397,-1.436Z" style="fill:#edbd58;"/><g><g><path d="M3.135,3.087l1.73,-0.017l-0.091,0.385c-0.003,0.064 -0.006,0.13 -0.017,0.194c-0.01,0.042 -0.018,0.087 -0.025,0.131l-0.032,0.27l-1.4,0l-0.019,-0.157l-0.054,-0.263c-0.011,-0.067 -0.018,-0.145 -0.025,-0.227l-0.067,-0.316Z" style="fill:#0b0806;stroke:#0b0806;stroke-width:0.04px;"/><path d="M4.7,4.073c0.002,0 0.004,-0.002 0.004,-0.002l0.008,-0.053c-0.011,-0.002 -0.023,-0.009 -0.032,-0.007c-0.025,0.007 -0.046,0.003 -0.065,-0.012c-0.007,-0.004 -0.042,-0.006 -0.057,-0.004c-0.029,0.004 -0.022,0.004 -0.052,-0.001c-0.019,0.007 -0.061,0.01 -0.072,0.017c-0.022,0.015 -0.046,0.012 -0.07,0.005c-0.012,-0.004 -0.048,-0.004 -0.058,-0.001c-0.024,0.008 -0.044,0.011 -0.076,0.003c-0.01,-0.002 -0.045,-0.005 -0.058,-0.002c-0.038,0.005 -0.063,0.009 -0.105,-0.005c-0.017,0.002 -0.049,-0.012 -0.058,-0.009c-0.039,0.017 -0.077,0.019 -0.124,-0c-0.007,-0.003 -0.026,0.012 -0.039,0.01c-0.012,-0.003 -0.031,-0.004 -0.037,-0.001c-0.035,0.012 -0.077,0.016 -0.116,0.003c-0.004,-0.001 -0.017,-0 -0.026,0.002c-0.008,-0 -0.023,-0.007 -0.027,-0.005c-0.02,0.012 -0.039,0.011 -0.06,0.001c-0.007,-0.003 -0.051,-0.001 -0.065,-0.001c-0.048,0.013 -0.066,0.008 -0.105,0.004c-0.008,-0.002 -0.017,0.005 -0.026,0.004c-0.007,-0.001 -0.019,-0.004 -0.022,-0.003c-0.014,0.007 -0.03,0.005 -0.043,-0.003c-0.002,-0.002 -0.009,-0.002 -0.013,-0.002l-0.01,0.06c0,0 0.002,0.002 0.004,0.002c0.115,0.004 0.228,0.045 0.349,0.045c0.139,-0.001 0.302,0 0.535,0c0.142,-0.001 0.315,-0.042 0.516,-0.045Z" style="fill:#030303;"/><g><path d="M3.229,3.285c-0.038,0.023 -0.114,0.001 -0.133,-0.011c-0.149,-0.098 -0.25,-0.28 -0.25,-0.486c0,-0.246 0.092,-0.383 0.289,-0.46c0.032,-0.112 0.176,-0.264 0.288,-0.264c0.021,-0 0.023,-0.117 0.152,-0.098c0.074,-0.212 0.205,-0.228 0.425,-0.228c0.22,0 0.47,0.049 0.513,0.335c0.11,-0.076 0.382,0.031 0.31,0.255c0.196,0.077 0.331,0.214 0.331,0.46c-0,0.206 -0.101,0.388 -0.25,0.486c-0.074,0.069 -0.254,0.065 -0.317,0.031c-0.026,-0.015 -0.111,-0.003 -0.136,0.003c-0.114,0.024 -0.133,0.053 -0.248,0.03c-0.052,-0.01 -0.136,-0.043 -0.2,-0.065c-0.027,0.035 -0.088,0.066 -0.136,0.065c-0.066,0.073 -0.132,0.087 -0.242,0.089c-0.11,-0 -0.205,-0.048 -0.258,-0.119c-0.028,0.024 -0.116,0.022 -0.138,-0.023Z" style="fill:#0b0806;"/></g></g><g><path d="M3.203,3.079l1.587,-0.017l-0.083,0.362c-0.003,0.06 -0.007,0.12 -0.017,0.18c-0.009,0.042 -0.016,0.082 -0.022,0.124l-0.03,0.254l-1.282,0l-0.017,-0.148l-0.051,-0.247c-0.009,-0.063 -0.017,-0.135 -0.023,-0.213l-0.062,-0.295Z" style="fill:#e57676;fill-opacity:0.98;stroke:#8b1818;stroke-width:0.04px;"/><path d="M3.384,3.25l-0.047,0.006l0.004,0.121l0.031,0.204l0.02,0.251l0.018,0.133l0.048,-0.006c-0.006,-0.061 -0.003,-0.112 -0.01,-0.174c-0.008,-0.069 -0.025,-0.152 -0.039,-0.269c-0.008,-0.072 -0.013,-0.164 -0.025,-0.266Z" style="fill:#e57676;"/><path d="M3.384,3.25l-0.047,0.006l0.004,0.121l0.031,0.204l0.02,0.251l0.018,0.133l0.048,-0.006c-0.006,-0.061 -0.003,-0.112 -0.01,-0.174c-0.008,-0.069 -0.025,-0.152 -0.039,-0.269c-0.008,-0.072 -0.013,-0.164 -0.025,-0.266Z" style="fill:#8b1818;"/><path d="M4.638,4.004c0.001,-0 0.004,-0.003 0.004,-0.003l0.006,-0.049c-0.01,-0.003 -0.02,-0.009 -0.028,-0.008c-0.023,0.008 -0.043,0.003 -0.059,-0.01c-0.006,-0.004 -0.038,-0.007 -0.053,-0.005c-0.026,0.004 -0.02,0.004 -0.047,-0c-0.018,0.006 -0.056,0.01 -0.066,0.016c-0.02,0.013 -0.043,0.01 -0.064,0.004c-0.011,-0.005 -0.045,-0.003 -0.054,-0c-0.023,0.007 -0.04,0.01 -0.069,0.003c-0.009,-0.003 -0.042,-0.005 -0.054,-0.004c-0.034,0.006 -0.058,0.008 -0.096,-0.003c-0.016,0.002 -0.045,-0.013 -0.052,-0.009c-0.037,0.016 -0.072,0.018 -0.115,-0c-0.005,-0.001 -0.023,0.011 -0.035,0.009c-0.01,-0.001 -0.028,-0.002 -0.034,-0c-0.033,0.011 -0.071,0.014 -0.106,0.003c-0.005,-0.002 -0.016,0.001 -0.025,0.001c-0.007,-0 -0.022,-0.006 -0.025,-0.005c-0.018,0.012 -0.034,0.01 -0.055,0.003c-0.006,-0.004 -0.045,-0.003 -0.058,-0.003c-0.045,0.013 -0.061,0.008 -0.098,0.005c-0.006,-0.001 -0.014,0.005 -0.023,0.003c-0.005,-0 -0.017,-0.004 -0.02,-0.003c-0.013,0.007 -0.028,0.004 -0.04,-0.003c-0.002,-0.002 -0.008,-0.001 -0.011,-0.002l-0.009,0.057c-0,-0 0.002,0.003 0.004,0.002c0.104,0.003 0.209,0.043 0.318,0.041c0.128,-0.001 0.278,0.001 0.491,0c0.13,0 0.29,-0.038 0.473,-0.04Z" style="fill:#e57676;"/><path d="M4.638,4.004c0.001,-0 0.004,-0.003 0.004,-0.003l0.006,-0.049c-0.01,-0.003 -0.02,-0.009 -0.028,-0.008c-0.023,0.008 -0.043,0.003 -0.059,-0.01c-0.006,-0.004 -0.038,-0.007 -0.053,-0.005c-0.026,0.004 -0.02,0.004 -0.047,-0c-0.018,0.006 -0.056,0.01 -0.066,0.016c-0.02,0.013 -0.043,0.01 -0.064,0.004c-0.011,-0.005 -0.045,-0.003 -0.054,-0c-0.023,0.007 -0.04,0.01 -0.069,0.003c-0.009,-0.003 -0.042,-0.005 -0.054,-0.004c-0.034,0.006 -0.058,0.008 -0.096,-0.003c-0.016,0.002 -0.045,-0.013 -0.052,-0.009c-0.037,0.016 -0.072,0.018 -0.115,-0c-0.005,-0.001 -0.023,0.011 -0.035,0.009c-0.01,-0.001 -0.028,-0.002 -0.034,-0c-0.033,0.011 -0.071,0.014 -0.106,0.003c-0.005,-0.002 -0.016,0.001 -0.025,0.001c-0.007,-0 -0.022,-0.006 -0.025,-0.005c-0.018,0.012 -0.034,0.01 -0.055,0.003c-0.006,-0.004 -0.045,-0.003 -0.058,-0.003c-0.045,0.013 -0.061,0.008 -0.098,0.005c-0.006,-0.001 -0.014,0.005 -0.023,0.003c-0.005,-0 -0.017,-0.004 -0.02,-0.003c-0.013,0.007 -0.028,0.004 -0.04,-0.003c-0.002,-0.002 -0.008,-0.001 -0.011,-0.002l-0.009,0.057c-0,-0 0.002,0.003 0.004,0.002c0.104,0.003 0.209,0.043 0.318,0.041c0.128,-0.001 0.278,0.001 0.491,0c0.13,0 0.29,-0.038 0.473,-0.04Z" style="fill:#8b1818;"/><path d="M4.514,3.224l-0.068,-0.007l-0.022,0.129l-0.002,0.218l-0.032,0.265l-0.007,0.142l0.069,0.008c0.007,-0.064 0.024,-0.115 0.028,-0.181c0.005,-0.075 -0.002,-0.166 0.007,-0.29c0.005,-0.077 0.02,-0.174 0.027,-0.284Z" style="fill:#e57676;"/><path d="M4.514,3.224l-0.068,-0.007l-0.022,0.129l-0.002,0.218l-0.032,0.265l-0.007,0.142l0.069,0.008c0.007,-0.064 0.024,-0.115 0.028,-0.181c0.005,-0.075 -0.002,-0.166 0.007,-0.29c0.005,-0.077 0.02,-0.174 0.027,-0.284Z" style="fill:#8b1818;"/><path d="M3.849,3.304l-0.069,0.005l-0.005,0.118l0.029,0.193l0.006,0.24l0.012,0.127l0.069,-0.005c-0.003,-0.057 0.007,-0.107 0.002,-0.166c-0.005,-0.066 -0.025,-0.145 -0.032,-0.257c-0.005,-0.069 -0.004,-0.157 -0.012,-0.255Z" style="fill:#e57676;"/><path d="M3.849,3.304l-0.069,0.005l-0.005,0.118l0.029,0.193l0.006,0.24l0.012,0.127l0.069,-0.005c-0.003,-0.057 0.007,-0.107 0.002,-0.166c-0.005,-0.066 -0.025,-0.145 -0.032,-0.257c-0.005,-0.069 -0.004,-0.157 -0.012,-0.255Z" style="fill:#8b1818;"/><path d="M4.254,3.248l-0.055,-0.005l-0.017,0.124l-0.002,0.212l-0.024,0.257l-0.005,0.137l0.055,0.005c0.004,-0.061 0.018,-0.112 0.022,-0.176c0.004,-0.072 -0.003,-0.158 0.004,-0.28c0.006,-0.074 0.017,-0.168 0.022,-0.274Z" style="fill:#e57676;"/><path d="M4.254,3.248l-0.055,-0.005l-0.017,0.124l-0.002,0.212l-0.024,0.257l-0.005,0.137l0.055,0.005c0.004,-0.061 0.018,-0.112 0.022,-0.176c0.004,-0.072 -0.003,-0.158 0.004,-0.28c0.006,-0.074 0.017,-0.168 0.022,-0.274Z" style="fill:#8b1818;"/><path d="M4.497,3.974l0.056,0.008l0.021,-0.124c0.006,-0.07 0.009,-0.14 0.011,-0.21l0.036,-0.257l0.011,-0.137l-0.056,-0.006c-0.007,0.06 -0.022,0.111 -0.029,0.175c-0.006,0.071 -0.005,0.158 -0.017,0.279c-0.007,0.074 -0.023,0.168 -0.033,0.272Z" style="fill:#e57676;"/><path d="M4.497,3.974l0.056,0.008l0.021,-0.124c0.006,-0.07 0.009,-0.14 0.011,-0.21l0.036,-0.257l0.011,-0.137l-0.056,-0.006c-0.007,0.06 -0.022,0.111 -0.029,0.175c-0.006,0.071 -0.005,0.158 -0.017,0.279c-0.007,0.074 -0.023,0.168 -0.033,0.272Z" style="fill:#8b1818;"/><path d="M4.275,3.964l0.057,0.003l0.014,-0.125l-0.002,-0.21l0.022,-0.258l0.002,-0.138l-0.055,-0.003c-0.003,0.06 -0.016,0.113 -0.019,0.177c-0.003,0.072 0.004,0.158 -0.001,0.28c-0.003,0.074 -0.014,0.169 -0.018,0.274Z" style="fill:#e57676;"/><path d="M4.275,3.964l0.057,0.003l0.014,-0.125l-0.002,-0.21l0.022,-0.258l0.002,-0.138l-0.055,-0.003c-0.003,0.06 -0.016,0.113 -0.019,0.177c-0.003,0.072 0.004,0.158 -0.001,0.28c-0.003,0.074 -0.014,0.169 -0.018,0.274Z" style="fill:#8b1818;"/><path d="M3.544,3.31l-0.05,0.006l0.002,0.118l0.031,0.192l0.016,0.24l0.018,0.126l0.051,-0.006c-0.002,-0.018 -0.003,-0.033 -0.003,-0.05c-0.001,-0.038 0,-0.074 -0.004,-0.115c-0.008,-0.066 -0.026,-0.145 -0.038,-0.257c-0.007,-0.068 -0.011,-0.156 -0.023,-0.254Z" style="fill:#e57676;"/><path d="M3.544,3.31l-0.05,0.006l0.002,0.118l0.031,0.192l0.016,0.24l0.018,0.126l0.051,-0.006c-0.002,-0.018 -0.003,-0.033 -0.003,-0.05c-0.001,-0.038 0,-0.074 -0.004,-0.115c-0.008,-0.066 -0.026,-0.145 -0.038,-0.257c-0.007,-0.068 -0.011,-0.156 -0.023,-0.254Z" style="fill:#8b1818;"/><path d="M4.006,3.973l0.051,-0.003l0.002,-0.131l-0.021,-0.221l-0.004,-0.271l-0.011,-0.144l-0.051,0.003c0.003,0.063 -0.005,0.119 0,0.185c0.003,0.076 0.017,0.166 0.025,0.293c0.003,0.079 0.002,0.179 0.009,0.289Z" style="fill:#e57676;"/><path d="M4.006,3.973l0.051,-0.003l0.002,-0.131l-0.021,-0.221l-0.004,-0.271l-0.011,-0.144l-0.051,0.003c0.003,0.063 -0.005,0.119 0,0.185c0.003,0.076 0.017,0.166 0.025,0.293c0.003,0.079 0.002,0.179 0.009,0.289Z" style="fill:#8b1818;"/><path d="M3.665,3.982l0.051,-0.001l0.008,-0.111l-0.012,-0.185l0.006,-0.228l-0.005,-0.12l-0.051,-0c0,0.053 -0.008,0.1 -0.008,0.155c0.002,0.064 0.011,0.14 0.012,0.247c0.001,0.066 -0.003,0.149 -0.001,0.243Z" style="fill:#e57676;"/><path d="M3.665,3.982l0.051,-0.001l0.008,-0.111l-0.012,-0.185l0.006,-0.228l-0.005,-0.12l-0.051,-0c0,0.053 -0.008,0.1 -0.008,0.155c0.002,0.064 0.011,0.14 0.012,0.247c0.001,0.066 -0.003,0.149 -0.001,0.243Z" style="fill:#8b1818;"/><g><path d="M3.29,3.224c-0.035,0.021 -0.104,0.002 -0.122,-0.01c-0.136,-0.086 -0.23,-0.247 -0.23,-0.432c0,-0.218 0.085,-0.339 0.266,-0.408c0.03,-0.1 0.161,-0.236 0.263,-0.236c0.02,-0 0.022,-0.103 0.139,-0.086c0.068,-0.19 0.188,-0.203 0.39,-0.203c0.203,-0 0.431,0.042 0.472,0.297c0.099,-0.068 0.348,0.028 0.284,0.228c0.18,0.068 0.302,0.19 0.302,0.408c-0,0.185 -0.092,0.345 -0.229,0.432c-0.066,0.063 -0.232,0.059 -0.289,0.029c-0.025,-0.014 -0.104,-0.002 -0.126,0.003c-0.106,0.02 -0.122,0.047 -0.227,0.026c-0.048,-0.009 -0.126,-0.038 -0.184,-0.057c-0.024,0.03 -0.081,0.057 -0.124,0.057c-0.062,0.066 -0.122,0.079 -0.222,0.079c-0.101,-0 -0.189,-0.042 -0.235,-0.106c-0.027,0.022 -0.108,0.02 -0.128,-0.021Z" style="fill:#493434;stroke:#a38686;stroke-width:0.04px;"/></g><path d="M3.701,2.612c0.151,0.054 0.235,0.225 0.186,0.378c-0.05,0.155 -0.212,0.236 -0.365,0.182c-0.152,-0.054 -0.235,-0.224 -0.185,-0.379c0.048,-0.155 0.21,-0.236 0.364,-0.181Z" style="fill:#a38686;"/><path d="M4.385,2.691c0.104,-0.09 0.241,-0.098 0.302,-0.017c0.062,0.082 0.026,0.222 -0.078,0.313c-0.105,0.089 -0.241,0.097 -0.303,0.016c-0.062,-0.082 -0.026,-0.221 0.079,-0.312Z" style="fill:#a38686;"/><path d="M4.533,2.239c0.037,-0.013 0.083,0.018 0.101,0.073c0.016,0.054 -0,0.11 -0.04,0.124c-0.038,0.014 -0.083,-0.019 -0.101,-0.074c-0.017,-0.053 0,-0.109 0.04,-0.123Z" style="fill:#a38686;"/><path d="M3.589,2.301c-0.034,-0.034 -0.04,-0.086 -0.012,-0.116c0.026,-0.03 0.075,-0.026 0.109,0.008c0.034,0.034 0.04,0.086 0.013,0.116c-0.027,0.029 -0.077,0.027 -0.11,-0.008Z" style="fill:#a38686;"/></g></g></g><g><g><path d="M2.871,5.608c0.255,-0.001 0.462,0.204 0.462,0.454c-0,0.25 -0.206,0.454 -0.462,0.454c-0.255,0.001 -0.462,-0.204 -0.462,-0.454c0,-0.25 0.207,-0.455 0.462,-0.454Z" style="fill:#484662;"/><path d="M2.681,5.824c-0.082,0.079 -0.054,0.239 0.064,0.36c0.003,0.003 0.008,0.007 0.011,0.011c0.117,0.111 0.272,0.141 0.352,0.065c-0.08,0.04 -0.219,-0.004 -0.326,-0.112c-0.105,-0.108 -0.145,-0.248 -0.101,-0.324Zm0.21,0.397l0.217,0.039l-0.018,-0.114l-0.108,-0.034l-0.091,0.109Zm-0.172,-0.184l-0.037,-0.215l0.115,0.018l0.035,0.108l-0.113,0.089Z" style="fill:none;stroke:#d1c5b6;stroke-width:0.07px;"/></g><g><path d="M4,5.608c0.256,-0 0.462,0.204 0.462,0.454c-0.001,0.251 -0.207,0.455 -0.462,0.454c-0.255,0.001 -0.461,-0.203 -0.462,-0.454c0,-0.25 0.206,-0.454 0.462,-0.454Z" style="fill:#484662;"/><path d="M4.261,6.008c0.001,-0.12 -0.117,-0.218 -0.261,-0.218c-0.144,0 -0.262,0.098 -0.261,0.218c0,0.07 0.042,0.137 0.111,0.178l-0.033,0.148l0.116,-0.117c0.022,0.005 0.044,0.008 0.067,0.007c0.144,0 0.262,-0.096 0.261,-0.216Z" style="fill:none;stroke:#d1c5b6;stroke-width:0.07px;"/></g><g><path d="M5.129,5.608c0.255,-0.001 0.462,0.204 0.462,0.454c-0,0.25 -0.207,0.455 -0.462,0.454c-0.256,0 -0.462,-0.204 -0.462,-0.454c0,-0.25 0.207,-0.455 0.462,-0.454Z" style="fill:#484662;"/><g><path d="M5.457,5.972c-0,-0.089 -0.071,-0.159 -0.159,-0.159l-0.338,-0c-0.088,-0 -0.159,0.07 -0.159,0.159l0,0.18c0,0.089 0.072,0.16 0.159,0.159l0.338,0c0.088,0.001 0.159,-0.07 0.158,-0.158l0.001,-0.181Zm-0.069,-0.001c0.001,-0.05 -0.04,-0.091 -0.09,-0.091l-0.338,-0c-0.05,-0 -0.091,0.04 -0.092,0.092l0.001,0.181c-0.001,0.051 0.04,0.092 0.091,0.091l0.338,0c0.05,0 0.09,-0.04 0.091,-0.092l-0.001,-0.181Z" style="fill:#d1c5b6;"/><path d="M5.128,6.165l-0.214,-0.286l0.43,0.001l-0.216,0.285Z" style="fill:none;stroke:#d1c5b6;stroke-width:0.07px;"/></g></g></g><path d="M4,0.692c0.065,0 0.118,0.056 0.118,0.125c0,0.07 -0.053,0.125 -0.118,0.125c-0.065,-0 -0.118,-0.055 -0.118,-0.125c-0,-0.069 0.053,-0.125 0.118,-0.125Z" style="fill:#d1c5b6;"/></g><g><g><path d="M3.587,4.535c-0.004,0.069 -0.01,0.195 -0.019,0.378c-0.004,0.112 -0.007,0.239 -0.01,0.38l-0.168,-0l-0.005,-0.232l-0.164,0.251l-0.176,-0.249l-0.005,0.23l-0.168,-0c-0.002,-0.075 -0.006,-0.203 -0.012,-0.382c-0.005,-0.104 -0.013,-0.229 -0.023,-0.376l0.265,-0c0.01,0.024 0.026,0.063 0.048,0.116c0.018,0.039 0.042,0.083 0.071,0.136c0.013,-0.023 0.038,-0.069 0.073,-0.139c0.013,-0.026 0.03,-0.064 0.05,-0.113l0.244,-0Z" style="fill:#d1c5b6;fill-rule:nonzero;"/><path d="M4.376,4.535c-0.005,0.069 -0.011,0.195 -0.019,0.378c-0.005,0.112 -0.008,0.239 -0.01,0.38l-0.168,-0l-0.004,-0.232l-0.165,0.251l-0.177,-0.249l-0.005,0.23l-0.166,-0c-0.002,-0.075 -0.007,-0.203 -0.013,-0.382c-0.004,-0.104 -0.012,-0.229 -0.024,-0.376l0.266,-0c0.009,0.024 0.025,0.063 0.048,0.116c0.018,0.039 0.041,0.083 0.071,0.136c0.014,-0.023 0.038,-0.069 0.074,-0.139c0.013,-0.026 0.029,-0.064 0.048,-0.113l0.244,-0Z" style="fill:#d1c5b6;fill-rule:nonzero;"/><path d="M5.164,4.535c-0.003,0.069 -0.01,0.195 -0.018,0.378c-0.004,0.112 -0.008,0.239 -0.01,0.38l-0.168,-0l-0.005,-0.232l-0.164,0.251l-0.177,-0.249l-0.004,0.23l-0.168,-0c-0.002,-0.075 -0.006,-0.203 -0.013,-0.382c-0.004,-0.104 -0.012,-0.229 -0.024,-0.376l0.267,-0c0.01,0.024 0.026,0.063 0.048,0.116c0.017,0.039 0.041,0.083 0.071,0.136c0.013,-0.023 0.038,-0.069 0.073,-0.139c0.013,-0.026 0.029,-0.064 0.05,-0.113l0.242,-0Z" style="fill:#d1c5b6;fill-rule:nonzero;"/></g></g></g></g></g></svg>