<?xml version="1.0" encoding="UTF-8" standalone="no"?><!DOCTYPE svg PUBLIC "-//W3C//DTD SVG 1.1//EN" "http://www.w3.org/Graphics/SVG/1.1/DTD/svg11.dtd"><svg width="100%" height="100%" viewBox="0 0 8 8" version="1.1" xmlns="http://www.w3.org/2000/svg" xmlns:xlink="http://www.w3.org/1999/xlink" xml:space="preserve" xmlns:serif="http://www.serif.com/" style="fill-rule:evenodd;clip-rule:evenodd;stroke-linejoin:round;stroke-miterlimit:2;"><g><g><ellipse cx="3.532" cy="7.648" rx="2.755" ry="0.352" style="fill:none;"/><g><path d="M5.687,2.434l-4.597,0l-0.188,0.219l5.032,0l-0.247,-0.219Z" style="fill:#898d9b;"/><path d="M5.687,2.434l-4.597,0l-0.188,0.219l5.032,0l-0.247,-0.219Z"/><g><path d="M5.647,6.834l-0.072,0.477c-0.021,0.175 -0.186,0.5 -0.577,0.5c-1.08,0.047 -2.155,0.041 -3.226,0c-0.234,0 -0.502,-0.203 -0.568,-0.5l-0.207,-2.056l-0.195,-2.272l0,-0.245c0,-0.037 -0.041,-0.304 0.288,-0.304l0.205,0.223l4.205,0.081l0.075,-0.304l0.227,0c0.127,0 0.248,0.135 0.248,0.223l-0,0.238c0.399,-0.419 1.142,-0.181 1.488,0.279c0.372,0.492 0.312,1.231 -0.184,2.043c-0.308,0.504 -0.883,0.888 -1.482,1.196c-0.042,0.021 -0.137,0.118 -0.161,0.201c-0.026,0.093 -0.062,0.219 -0.064,0.22Zm0.102,-1.126c-0.008,0.005 0.022,-0.207 0.053,-0.491c0.023,-0.21 0.041,-0.393 0.07,-0.623c0.009,-0.087 0.15,-0.081 0.178,-0.213c0.056,-0.261 0.192,-0.402 0.192,-0.402c0.319,-0.386 0.508,-0.297 0.65,-0.089c0.143,0.208 0.031,0.802 -0.185,1.132c-0.161,0.246 -0.733,0.553 -0.958,0.686Z"/><path d="M5.463,6.629l-0.065,0.653c-0.02,0.164 -0.143,0.326 -0.306,0.326c-1.121,0.046 -2.241,0.042 -3.362,0c-0.133,-0.016 -0.279,-0.162 -0.305,-0.326l-0.459,-4.573c-0,-0.106 0.098,-0.106 0.153,-0.106c1.532,0.041 3.061,0.043 4.585,-0c0.117,-0 0.153,0.024 0.153,0.106l-0.062,0.624c0,-0 0.015,0.011 0.024,-0c0.475,-0.577 1.176,-0.462 1.502,-0.052c0.35,0.441 0.271,1.221 -0.2,1.951c-0.285,0.469 -0.934,0.761 -1.493,1.047c-0.037,0.02 -0.021,0.131 -0.042,0.208c-0.025,0.086 -0.119,0.141 -0.123,0.142Zm0.067,-0.65l0.166,-1.677c0.093,0.009 0.136,-0.047 0.161,-0.123c0.033,-0.192 0.117,-0.363 0.241,-0.519c0.421,-0.471 0.937,-0.301 1.062,0.119c0.14,0.471 0.06,0.827 -0.294,1.38c-0.228,0.379 -0.868,0.624 -1.336,0.82Z" style="fill:#898d9b;"/><ellipse cx="5.554" cy="2.743" rx="0.032" ry="0.029"/><ellipse cx="5.238" cy="2.724" rx="0.014" ry="0.013"/><ellipse cx="5.685" cy="2.871" rx="0.006" ry="0.008"/><circle cx="5.56" cy="2.922" r="0.005"/><path d="M5.842,3.051c-1.626,0.024 -3.251,0.023 -4.876,-0l-0,0.246c1.612,0.028 3.235,0.03 4.876,-0l-0,-0.246Z"/><path d="M5.492,6.692c-1.384,0.035 -2.769,0.032 -4.154,-0l-0,0.246c1.385,0.028 2.77,0.031 4.154,-0l-0,-0.246Z"/><g><g transform="matrix(0.965922,0,0,1,0.0455962,0)"><text x="1.338px" y="6.229px" style="font-family:'ShowcardGothic-Reg', 'Showcard Gothic', fantasy;font-size:3.21px;">M3</text></g></g><ellipse cx="1.122" cy="3.818" rx="0.032" ry="0.029"/><ellipse cx="2.565" cy="3.789" rx="0.014" ry="0.013"/><ellipse cx="1.716" cy="3.481" rx="0.006" ry="0.008"/><ellipse cx="1.5" cy="2.782" rx="0.02" ry="0.021"/><ellipse cx="1.821" cy="2.723" rx="0.014" ry="0.013"/><ellipse cx="1.043" cy="2.68" rx="0.006" ry="0.008"/><circle cx="1.095" cy="2.997" r="0.005"/><circle cx="1.229" cy="3.59" r="0.005"/><ellipse cx="5.15" cy="7.485" rx="0.032" ry="0.029"/><ellipse cx="4.86" cy="7.473" rx="0.014" ry="0.013"/><ellipse cx="4.32" cy="5.506" rx="0.006" ry="0.008"/><circle cx="3.823" cy="6.275" r="0.005"/><ellipse cx="2.779" cy="7.164" rx="0.032" ry="0.029"/><ellipse cx="3.877" cy="2.754" rx="0.014" ry="0.013"/><ellipse cx="3.429" cy="2.816" rx="0.006" ry="0.008"/><ellipse cx="2.238" cy="6.529" rx="0.032" ry="0.029"/><ellipse cx="1.462" cy="6.241" rx="0.014" ry="0.013"/><ellipse cx="1.703" cy="6.446" rx="0.006" ry="0.008"/><circle cx="1.457" cy="5.724" r="0.005"/><ellipse cx="1.678" cy="7.362" rx="0.032" ry="0.029"/><ellipse cx="2.281" cy="7.498" rx="0.014" ry="0.013"/><ellipse cx="2.009" cy="7.44" rx="0.006" ry="0.008"/><circle cx="1.906" cy="7.489" r="0.005"/><path d="M2.991,6.133c0.014,0.011 0.021,0.026 0.016,0.032c-0.005,0.006 -0.02,0.002 -0.034,-0.009c-0.014,-0.012 -0.021,-0.024 -0.016,-0.032c0.005,-0.006 0.021,-0.002 0.034,0.009Z"/><ellipse cx="5.54" cy="4.583" rx="0.014" ry="0.013"/><ellipse cx="5.515" cy="5.03" rx="0.006" ry="0.008"/><circle cx="5.378" cy="4.959" r="0.005"/><ellipse cx="6.966" cy="3.161" rx="0.014" ry="0.013"/><ellipse cx="5.796" cy="2.689" rx="0.006" ry="0.008"/><circle cx="6.123" cy="3.415" r="0.005"/></g></g></g></g></svg>