<?xml version="1.0" encoding="UTF-8" standalone="no"?><!DOCTYPE svg PUBLIC "-//W3C//DTD SVG 1.1//EN" "http://www.w3.org/Graphics/SVG/1.1/DTD/svg11.dtd"><svg width="100%" height="100%" viewBox="0 0 8 8" version="1.1" xmlns="http://www.w3.org/2000/svg" xmlns:xlink="http://www.w3.org/1999/xlink" xml:space="preserve" xmlns:serif="http://www.serif.com/" style="fill-rule:evenodd;clip-rule:evenodd;stroke-linecap:round;stroke-linejoin:round;stroke-miterlimit:1.5;"><g><g><ellipse cx="4.02" cy="7.656" rx="3.627" ry="0.188" style="fill:none;"/><g><g><path d="M1.136,4.501l5.728,-0.056l-0.305,1.24c-0.009,0.207 -0.019,0.413 -0.057,0.62c-0.032,0.141 -0.059,0.282 -0.077,0.423l-0.136,0.79l-4.558,0l-0.11,-0.424l-0.179,-0.845c-0.034,-0.22 -0.061,-0.467 -0.083,-0.733l-0.223,-1.015Z" style="fill:#0b0806;stroke:#0b0806;stroke-width:0.14px;"/><path d="M6.317,7.674c0.004,0 0.012,-0.008 0.012,-0.008l0.028,-0.135c-0.036,-0.009 -0.078,-0.065 -0.109,-0.057c-0.081,0.02 -0.152,0.007 -0.215,-0.038c-0.02,-0.014 -0.134,-0.022 -0.187,-0.015c-0.096,0.012 -0.072,0.012 -0.17,0c-0.065,0.019 -0.204,0.03 -0.241,0.054c-0.07,0.046 -0.151,0.034 -0.231,0.011c-0.039,-0.011 -0.159,-0.009 -0.189,0c-0.085,0.024 -0.151,0.037 -0.252,0.012c-0.035,-0.009 -0.152,-0.019 -0.194,-0.012c-0.122,0.018 -0.211,0.029 -0.347,-0.011c-0.057,0.004 -0.162,-0.041 -0.191,-0.03c-0.13,0.053 -0.259,0.061 -0.412,0c-0.021,-0.008 -0.086,0.038 -0.13,0.03c-0.036,-0.006 -0.098,-0.009 -0.122,-0.001c-0.116,0.038 -0.253,0.049 -0.381,0.009c-0.017,-0.005 -0.058,0.002 -0.085,0.003c-0.03,0.001 -0.082,-0.018 -0.093,-0.012c-0.068,0.038 -0.127,0.032 -0.2,0.004c-0.022,-0.009 -0.164,-0.005 -0.208,-0.004c-0.165,0.041 -0.222,0.026 -0.353,0.012c-0.025,-0.003 -0.055,0.016 -0.086,0.012c-0.02,-0.003 -0.061,-0.014 -0.072,-0.008c-0.046,0.022 -0.098,0.012 -0.142,-0.012c-0.006,-0.004 -0.091,0.012 -0.091,0.039l0.015,0.149c0,0 0.007,0.008 0.012,0.008c0.384,0.011 0.757,0.146 1.156,0.144c0.457,-0.003 0.997,0.001 1.768,0c0.469,-0.001 1.045,-0.136 1.71,-0.144Z" style="fill:#030303;"/><g><path d="M1.451,5.133c-0.13,0.076 -0.378,0.006 -0.441,-0.035c-0.495,-0.314 -0.828,-0.897 -0.828,-1.563c0,-0.789 0.305,-1.232 0.954,-1.479c0.11,-0.362 0.585,-0.852 0.955,-0.852c0.072,0 0.077,-0.373 0.502,-0.313c0.246,-0.686 0.678,-0.735 1.407,-0.735c0.729,0 1.553,0.157 1.7,1.077c0.361,-0.246 1.26,0.103 1.025,0.823c0.649,0.247 1.093,0.69 1.093,1.479c0,0.666 -0.333,1.249 -0.828,1.563c-0.24,0.224 -0.839,0.211 -1.044,0.104c-0.093,-0.048 -0.371,-0.01 -0.455,0.007c-0.379,0.076 -0.438,0.173 -0.821,0.098c-0.169,-0.033 -0.449,-0.138 -0.659,-0.209c-0.089,0.111 -0.293,0.209 -0.451,0.209c-0.22,0.237 -0.438,0.281 -0.801,0.284c-0.363,0.003 -0.681,-0.152 -0.85,-0.382c-0.098,0.077 -0.388,0.071 -0.458,-0.076Z" style="fill:#0b0806;"/></g></g><g><path d="M1.364,4.473l5.25,-0.052l-0.279,1.162c-0.008,0.194 -0.018,0.388 -0.052,0.581c-0.03,0.132 -0.054,0.264 -0.071,0.397l-0.102,0.819l-4.242,0l-0.059,-0.476l-0.165,-0.793c-0.031,-0.206 -0.056,-0.437 -0.076,-0.686l-0.204,-0.952Z" style="fill:#e57676;fill-opacity:0.98;stroke:#8b1818;stroke-width:0.14px;"/><path d="M1.962,5.022l-0.159,0.019l0.016,0.394l0.106,0.652l0.064,0.809l0.058,0.428l0.158,-0.019c-0.018,-0.192 -0.007,-0.358 -0.03,-0.557c-0.026,-0.224 -0.088,-0.489 -0.13,-0.867c-0.027,-0.232 -0.044,-0.53 -0.083,-0.859Z" style="fill:#e57676;"/><path d="M1.962,5.022l-0.159,0.019l0.016,0.394l0.106,0.652l0.064,0.809l0.058,0.428l0.158,-0.019c-0.018,-0.192 -0.007,-0.358 -0.03,-0.557c-0.026,-0.224 -0.088,-0.489 -0.13,-0.867c-0.027,-0.232 -0.044,-0.53 -0.083,-0.859Z" style="fill:#8b1818;"/><path d="M6.113,7.448c0.004,0 0.011,-0.007 0.011,-0.007l0.022,-0.158c-0.032,-0.008 -0.068,-0.03 -0.096,-0.023c-0.074,0.019 -0.14,0.007 -0.197,-0.035c-0.019,-0.014 -0.123,-0.021 -0.172,-0.015c-0.088,0.012 -0.066,0.011 -0.156,0c-0.059,0.019 -0.187,0.029 -0.221,0.051c-0.064,0.043 -0.138,0.032 -0.211,0.01c-0.036,-0.01 -0.146,-0.008 -0.174,0c-0.078,0.023 -0.138,0.035 -0.23,0.012c-0.032,-0.009 -0.14,-0.018 -0.179,-0.012c-0.111,0.018 -0.193,0.028 -0.318,-0.01c-0.052,0.004 -0.148,-0.039 -0.174,-0.028c-0.12,0.05 -0.238,0.057 -0.378,0c-0.019,-0.007 -0.079,0.035 -0.119,0.028c-0.033,-0.005 -0.09,-0.008 -0.112,-0.001c-0.106,0.036 -0.232,0.046 -0.35,0.009c-0.015,-0.005 -0.052,0.002 -0.078,0.002c-0.027,0.001 -0.075,-0.016 -0.084,-0.011c-0.063,0.036 -0.117,0.03 -0.184,0.004c-0.02,-0.008 -0.15,-0.005 -0.191,-0.004c-0.151,0.039 -0.204,0.025 -0.323,0.011c-0.023,-0.002 -0.05,0.016 -0.079,0.012c-0.018,-0.003 -0.056,-0.013 -0.067,-0.008c-0.041,0.021 -0.089,0.012 -0.13,-0.011c-0.005,-0.003 -0.026,-0.003 -0.038,-0.004l-0.031,0.181c0,0 0.006,0.007 0.011,0.007c0.352,0.01 0.694,0.136 1.06,0.134c0.419,-0.002 0.914,0.002 1.621,0c0.43,0 0.957,-0.126 1.567,-0.134Z" style="fill:#e57676;"/><path d="M6.113,7.448c0.004,0 0.011,-0.007 0.011,-0.007l0.022,-0.158c-0.032,-0.008 -0.068,-0.03 -0.096,-0.023c-0.074,0.019 -0.14,0.007 -0.197,-0.035c-0.019,-0.014 -0.123,-0.021 -0.172,-0.015c-0.088,0.012 -0.066,0.011 -0.156,0c-0.059,0.019 -0.187,0.029 -0.221,0.051c-0.064,0.043 -0.138,0.032 -0.211,0.01c-0.036,-0.01 -0.146,-0.008 -0.174,0c-0.078,0.023 -0.138,0.035 -0.23,0.012c-0.032,-0.009 -0.14,-0.018 -0.179,-0.012c-0.111,0.018 -0.193,0.028 -0.318,-0.01c-0.052,0.004 -0.148,-0.039 -0.174,-0.028c-0.12,0.05 -0.238,0.057 -0.378,0c-0.019,-0.007 -0.079,0.035 -0.119,0.028c-0.033,-0.005 -0.09,-0.008 -0.112,-0.001c-0.106,0.036 -0.232,0.046 -0.35,0.009c-0.015,-0.005 -0.052,0.002 -0.078,0.002c-0.027,0.001 -0.075,-0.016 -0.084,-0.011c-0.063,0.036 -0.117,0.03 -0.184,0.004c-0.02,-0.008 -0.15,-0.005 -0.191,-0.004c-0.151,0.039 -0.204,0.025 -0.323,0.011c-0.023,-0.002 -0.05,0.016 -0.079,0.012c-0.018,-0.003 -0.056,-0.013 -0.067,-0.008c-0.041,0.021 -0.089,0.012 -0.13,-0.011c-0.005,-0.003 -0.026,-0.003 -0.038,-0.004l-0.031,0.181c0,0 0.006,0.007 0.011,0.007c0.352,0.01 0.694,0.136 1.06,0.134c0.419,-0.002 0.914,0.002 1.621,0c0.43,0 0.957,-0.126 1.567,-0.134Z" style="fill:#8b1818;"/><path d="M5.702,4.942l-0.227,-0.023l-0.072,0.413l-0.008,0.702l-0.104,0.855l-0.022,0.459l0.227,0.022c0.021,-0.203 0.077,-0.372 0.092,-0.584c0.017,-0.239 -0.006,-0.53 0.025,-0.933c0.019,-0.247 0.066,-0.56 0.089,-0.911Z" style="fill:#e57676;"/><path d="M5.702,4.942l-0.227,-0.023l-0.072,0.413l-0.008,0.702l-0.104,0.855l-0.022,0.459l0.227,0.022c0.021,-0.203 0.077,-0.372 0.092,-0.584c0.017,-0.239 -0.006,-0.53 0.025,-0.933c0.019,-0.247 0.066,-0.56 0.089,-0.911Z" style="fill:#8b1818;"/><path d="M3.498,5.197l-0.227,0.017l-0.013,0.377l0.092,0.623l0.019,0.773l0.044,0.409l0.227,-0.017c-0.009,-0.183 0.022,-0.342 0.007,-0.532c-0.017,-0.214 -0.081,-0.467 -0.108,-0.829c-0.016,-0.222 -0.014,-0.506 -0.041,-0.821Z" style="fill:#e57676;"/><path d="M3.498,5.197l-0.227,0.017l-0.013,0.377l0.092,0.623l0.019,0.773l0.044,0.409l0.227,-0.017c-0.009,-0.183 0.022,-0.342 0.007,-0.532c-0.017,-0.214 -0.081,-0.467 -0.108,-0.829c-0.016,-0.222 -0.014,-0.506 -0.041,-0.821Z" style="fill:#8b1818;"/><path d="M4.841,5.016l-0.182,-0.014l-0.058,0.401l-0.004,0.678l-0.082,0.83l-0.016,0.443l0.182,0.014c0.016,-0.197 0.06,-0.363 0.072,-0.568c0.013,-0.231 -0.006,-0.511 0.018,-0.901c0.015,-0.239 0.052,-0.543 0.07,-0.883Z" style="fill:#e57676;"/><path d="M4.841,5.016l-0.182,-0.014l-0.058,0.401l-0.004,0.678l-0.082,0.83l-0.016,0.443l0.182,0.014c0.016,-0.197 0.06,-0.363 0.072,-0.568c0.013,-0.231 -0.006,-0.511 0.018,-0.901c0.015,-0.239 0.052,-0.543 0.07,-0.883Z" style="fill:#8b1818;"/><path d="M5.646,7.357l0.181,0.023l0.075,-0.398c0.019,-0.226 0.028,-0.452 0.034,-0.678l0.118,-0.824l0.036,-0.442l-0.182,-0.023c-0.025,0.196 -0.076,0.359 -0.097,0.563c-0.023,0.231 -0.016,0.511 -0.057,0.9c-0.025,0.238 -0.076,0.54 -0.108,0.879Z" style="fill:#e57676;"/><path d="M5.646,7.357l0.181,0.023l0.075,-0.398c0.019,-0.226 0.028,-0.452 0.034,-0.678l0.118,-0.824l0.036,-0.442l-0.182,-0.023c-0.025,0.196 -0.076,0.359 -0.097,0.563c-0.023,0.231 -0.016,0.511 -0.057,0.9c-0.025,0.238 -0.076,0.54 -0.108,0.879Z" style="fill:#8b1818;"/><path d="M4.913,7.323l0.182,0.011l0.051,-0.402l-0.005,-0.678l0.069,-0.83l0.009,-0.444l-0.182,-0.011c-0.013,0.197 -0.055,0.363 -0.064,0.568c-0.009,0.232 0.014,0.511 -0.004,0.902c-0.011,0.239 -0.044,0.544 -0.056,0.884Z" style="fill:#e57676;"/><path d="M4.913,7.323l0.182,0.011l0.051,-0.402l-0.005,-0.678l0.069,-0.83l0.009,-0.444l-0.182,-0.011c-0.013,0.197 -0.055,0.363 -0.064,0.568c-0.009,0.232 0.014,0.511 -0.004,0.902c-0.011,0.239 -0.044,0.544 -0.056,0.884Z" style="fill:#8b1818;"/><path d="M2.492,5.217l-0.17,0.019l0.011,0.377l0.102,0.62l0.055,0.772l0.055,0.407l0.17,-0.019c-0.005,-0.055 -0.007,-0.108 -0.008,-0.16c-0.003,-0.121 0,-0.238 -0.015,-0.371c-0.024,-0.214 -0.086,-0.466 -0.125,-0.827c-0.024,-0.221 -0.038,-0.505 -0.075,-0.818Z" style="fill:#e57676;"/><path d="M2.492,5.217l-0.17,0.019l0.011,0.377l0.102,0.62l0.055,0.772l0.055,0.407l0.17,-0.019c-0.005,-0.055 -0.007,-0.108 -0.008,-0.16c-0.003,-0.121 0,-0.238 -0.015,-0.371c-0.024,-0.214 -0.086,-0.466 -0.125,-0.827c-0.024,-0.221 -0.038,-0.505 -0.075,-0.818Z" style="fill:#8b1818;"/><path d="M4.02,7.353l0.168,-0.008l0.008,-0.426l-0.069,-0.709l-0.016,-0.876l-0.033,-0.464l-0.168,0.008c0.007,0.208 -0.016,0.386 -0.004,0.601c0.013,0.244 0.061,0.533 0.082,0.944c0.012,0.251 0.011,0.573 0.032,0.93Z" style="fill:#e57676;"/><path d="M4.02,7.353l0.168,-0.008l0.008,-0.426l-0.069,-0.709l-0.016,-0.876l-0.033,-0.464l-0.168,0.008c0.007,0.208 -0.016,0.386 -0.004,0.601c0.013,0.244 0.061,0.533 0.082,0.944c0.012,0.251 0.011,0.573 0.032,0.93Z" style="fill:#8b1818;"/><path d="M2.892,7.379l0.168,-0.001l0.026,-0.356l-0.041,-0.597l0.021,-0.734l-0.015,-0.39l-0.167,0.001c-0.002,0.174 -0.032,0.322 -0.029,0.503c0.003,0.204 0.039,0.449 0.043,0.793c0.002,0.211 -0.012,0.481 -0.006,0.781Z" style="fill:#e57676;"/><path d="M2.892,7.379l0.168,-0.001l0.026,-0.356l-0.041,-0.597l0.021,-0.734l-0.015,-0.39l-0.167,0.001c-0.002,0.174 -0.032,0.322 -0.029,0.503c0.003,0.204 0.039,0.449 0.043,0.793c0.002,0.211 -0.012,0.481 -0.006,0.781Z" style="fill:#8b1818;"/><g><path d="M1.652,4.94c-0.119,0.068 -0.346,0.006 -0.404,-0.031c-0.454,-0.279 -0.759,-0.798 -0.759,-1.391c-0,-0.702 0.279,-1.096 0.875,-1.317c0.1,-0.321 0.536,-0.758 0.875,-0.758c0.066,0 0.07,-0.332 0.46,-0.278c0.226,-0.611 0.622,-0.654 1.29,-0.654c0.668,0 1.424,0.139 1.559,0.958c0.33,-0.219 1.154,0.091 0.939,0.732c0.595,0.221 1.002,0.615 1.002,1.317c0,0.593 -0.305,1.112 -0.759,1.391c-0.221,0.2 -0.769,0.188 -0.957,0.093c-0.085,-0.043 -0.34,-0.009 -0.418,0.006c-0.347,0.068 -0.401,0.154 -0.752,0.087c-0.155,-0.029 -0.412,-0.123 -0.604,-0.186c-0.082,0.099 -0.269,0.186 -0.414,0.186c-0.201,0.211 -0.401,0.251 -0.734,0.253c-0.333,0.002 -0.624,-0.135 -0.778,-0.34c-0.09,0.069 -0.356,0.063 -0.421,-0.068Z" style="fill:#493434;stroke:#a38686;stroke-width:0.14px;"/></g><path d="M3.007,2.969c0.503,0.175 0.78,0.722 0.618,1.219c-0.161,0.498 -0.7,0.76 -1.203,0.585c-0.502,-0.175 -0.779,-0.721 -0.618,-1.219c0.161,-0.498 0.7,-0.76 1.203,-0.585Z" style="fill:#a38686;"/><path d="M5.271,3.225c0.348,-0.292 0.796,-0.316 1.001,-0.054c0.205,0.261 0.089,0.711 -0.258,1.003c-0.347,0.292 -0.796,0.316 -1,0.054c-0.205,-0.262 -0.09,-0.711 0.257,-1.003Z" style="fill:#a38686;"/><path d="M5.76,1.77c0.128,-0.045 0.279,0.059 0.336,0.233c0.057,0.174 0,0.351 -0.129,0.397c-0.128,0.045 -0.278,-0.059 -0.335,-0.233c-0.058,-0.174 0,-0.352 0.128,-0.397Z" style="fill:#a38686;"/><path d="M2.64,1.969c-0.112,-0.11 -0.131,-0.278 -0.043,-0.375c0.089,-0.097 0.252,-0.085 0.364,0.025c0.112,0.11 0.131,0.278 0.042,0.375c-0.088,0.096 -0.251,0.085 -0.363,-0.025Z" style="fill:#a38686;"/></g></g></g></g></svg>