<?xml version="1.0" encoding="UTF-8" standalone="no"?><!DOCTYPE svg PUBLIC "-//W3C//DTD SVG 1.1//EN" "http://www.w3.org/Graphics/SVG/1.1/DTD/svg11.dtd"><svg width="100%" height="100%" viewBox="0 0 8 8" version="1.1" xmlns="http://www.w3.org/2000/svg" xmlns:xlink="http://www.w3.org/1999/xlink" xml:space="preserve" xmlns:serif="http://www.serif.com/" style="fill-rule:evenodd;clip-rule:evenodd;stroke-linejoin:round;stroke-miterlimit:2;"><g><g><ellipse cx="3.532" cy="7.648" rx="2.755" ry="0.352" style="fill:none;"/><g><path d="M5.687,2.434l-4.597,0l-0.188,0.219l5.032,0l-0.247,-0.219Z" style="fill:#898d9b;"/><path d="M5.687,2.434l-4.597,0l-0.188,0.219l5.032,0l-0.247,-0.219Z"/><g><path d="M5.647,6.834l-0.072,0.477c-0.021,0.175 -0.186,0.5 -0.577,0.5c-1.08,0.047 -2.155,0.041 -3.226,0c-0.234,0 -0.502,-0.203 -0.568,-0.5l-0.207,-2.056l-0.195,-2.272l0,-0.245c0,-0.037 -0.041,-0.304 0.288,-0.304l0.205,0.223l4.205,0.081l0.075,-0.304l0.227,0c0.127,0 0.248,0.135 0.248,0.223l-0,0.238c0.399,-0.419 1.142,-0.181 1.488,0.279c0.372,0.492 0.312,1.231 -0.184,2.043c-0.308,0.504 -0.883,0.888 -1.482,1.196c-0.042,0.021 -0.137,0.118 -0.161,0.201c-0.026,0.093 -0.062,0.219 -0.064,0.22Zm0.102,-1.126c-0.008,0.005 0.022,-0.207 0.053,-0.491c0.023,-0.21 0.041,-0.393 0.07,-0.623c0.009,-0.087 0.15,-0.081 0.178,-0.213c0.056,-0.261 0.192,-0.402 0.192,-0.402c0.319,-0.386 0.508,-0.297 0.65,-0.089c0.143,0.208 0.031,0.802 -0.185,1.132c-0.161,0.246 -0.733,0.553 -0.958,0.686Z"/><path d="M5.463,6.629l-0.065,0.653c-0.02,0.164 -0.143,0.326 -0.306,0.326c-1.121,0.046 -2.241,0.042 -3.362,0c-0.133,-0.016 -0.279,-0.162 -0.305,-0.326l-0.459,-4.573c-0,-0.106 0.098,-0.106 0.153,-0.106c1.532,0.041 3.061,0.043 4.585,-0c0.117,-0 0.153,0.024 0.153,0.106l-0.062,0.624c0,-0 0.015,0.011 0.024,-0c0.475,-0.577 1.176,-0.462 1.502,-0.052c0.35,0.441 0.271,1.221 -0.2,1.951c-0.285,0.469 -0.934,0.761 -1.493,1.047c-0.037,0.02 -0.021,0.131 -0.042,0.208c-0.025,0.086 -0.119,0.141 -0.123,0.142Zm0.067,-0.65l0.166,-1.677c0.093,0.009 0.136,-0.047 0.161,-0.123c0.033,-0.192 0.117,-0.363 0.241,-0.519c0.421,-0.471 0.937,-0.301 1.062,0.119c0.14,0.471 0.06,0.827 -0.294,1.38c-0.228,0.379 -0.868,0.624 -1.336,0.82Z" style="fill:#898d9b;"/><ellipse cx="5.554" cy="2.743" rx="0.032" ry="0.029"/><ellipse cx="5.238" cy="2.724" rx="0.014" ry="0.013"/><ellipse cx="5.685" cy="2.871" rx="0.006" ry="0.008"/><circle cx="5.56" cy="2.922" r="0.005"/><path d="M5.842,3.051c-1.626,0.024 -3.251,0.023 -4.876,-0l-0,0.246c1.612,0.028 3.235,0.03 4.876,-0l-0,-0.246Z"/><path d="M5.492,6.692c-1.384,0.035 -2.769,0.032 -4.154,-0l-0,0.246c1.385,0.028 2.77,0.031 4.154,-0l-0,-0.246Z"/><g><path d="M3.846,3.822c-0.014,0.219 -0.034,0.62 -0.062,1.201c-0.014,0.357 -0.024,0.759 -0.031,1.206l-0.548,0l-0.016,-0.738l-0.534,0.796l-0.577,-0.79l-0.015,0.732l-0.545,0c-0.007,-0.239 -0.021,-0.643 -0.041,-1.213c-0.014,-0.328 -0.04,-0.726 -0.077,-1.194l0.868,0c0.03,0.076 0.082,0.2 0.155,0.37c0.057,0.121 0.134,0.264 0.232,0.429c0.043,-0.071 0.123,-0.217 0.239,-0.44c0.042,-0.083 0.095,-0.202 0.159,-0.359l0.793,0Z" style="fill-rule:nonzero;"/><path d="M5.363,4.438c0,0.203 -0.035,0.363 -0.106,0.48c-0.066,0.11 -0.185,0.215 -0.357,0.313c0.207,0.094 0.31,0.252 0.31,0.475c0,0.18 -0.064,0.319 -0.192,0.418c-0.115,0.089 -0.263,0.134 -0.443,0.134c-0.174,-0 -0.279,-0.007 -0.317,-0.019l-0.051,-0.234c-0.013,-0.056 -0.032,-0.132 -0.056,-0.229c0.109,0.039 0.204,0.058 0.284,0.058c0.071,0 0.129,-0.021 0.174,-0.064c0.046,-0.043 0.069,-0.097 0.069,-0.163c-0,-0.062 -0.023,-0.115 -0.067,-0.158c-0.049,-0.047 -0.116,-0.071 -0.2,-0.071c-0.02,0 -0.041,0.001 -0.062,0.004l-0.059,-0.317c0.088,-0.011 0.153,-0.046 0.195,-0.105c0.032,-0.045 0.047,-0.095 0.047,-0.149c0,-0.141 -0.076,-0.212 -0.23,-0.212c-0.088,0 -0.191,0.019 -0.31,0.057l0.059,-0.788c0.176,-0.064 0.364,-0.096 0.562,-0.095c0.214,0.003 0.393,0.065 0.536,0.189c0.143,0.123 0.214,0.282 0.214,0.476Z" style="fill-rule:nonzero;"/></g><ellipse cx="1.122" cy="3.818" rx="0.032" ry="0.029"/><ellipse cx="2.565" cy="3.789" rx="0.014" ry="0.013"/><ellipse cx="1.716" cy="3.481" rx="0.006" ry="0.008"/><ellipse cx="1.5" cy="2.782" rx="0.02" ry="0.021"/><ellipse cx="1.821" cy="2.723" rx="0.014" ry="0.013"/><ellipse cx="1.043" cy="2.68" rx="0.006" ry="0.008"/><circle cx="1.095" cy="2.997" r="0.005"/><circle cx="1.229" cy="3.59" r="0.005"/><ellipse cx="5.15" cy="7.485" rx="0.032" ry="0.029"/><ellipse cx="4.86" cy="7.473" rx="0.014" ry="0.013"/><ellipse cx="4.32" cy="5.506" rx="0.006" ry="0.008"/><circle cx="3.823" cy="6.275" r="0.005"/><ellipse cx="2.779" cy="7.164" rx="0.032" ry="0.029"/><ellipse cx="3.877" cy="2.754" rx="0.014" ry="0.013"/><ellipse cx="3.429" cy="2.816" rx="0.006" ry="0.008"/><ellipse cx="2.238" cy="6.529" rx="0.032" ry="0.029"/><ellipse cx="1.462" cy="6.241" rx="0.014" ry="0.013"/><ellipse cx="1.703" cy="6.446" rx="0.006" ry="0.008"/><circle cx="1.457" cy="5.724" r="0.005"/><ellipse cx="1.678" cy="7.362" rx="0.032" ry="0.029"/><ellipse cx="2.281" cy="7.498" rx="0.014" ry="0.013"/><ellipse cx="2.009" cy="7.44" rx="0.006" ry="0.008"/><circle cx="1.906" cy="7.489" r="0.005"/><path d="M2.991,6.133c0.014,0.011 0.021,0.026 0.016,0.032c-0.005,0.006 -0.02,0.002 -0.034,-0.009c-0.014,-0.012 -0.021,-0.024 -0.016,-0.032c0.005,-0.006 0.021,-0.002 0.034,0.009Z"/><ellipse cx="5.54" cy="4.583" rx="0.014" ry="0.013"/><ellipse cx="5.515" cy="5.03" rx="0.006" ry="0.008"/><circle cx="5.378" cy="4.959" r="0.005"/><ellipse cx="6.966" cy="3.161" rx="0.014" ry="0.013"/><ellipse cx="5.796" cy="2.689" rx="0.006" ry="0.008"/><circle cx="6.123" cy="3.415" r="0.005"/></g></g></g><g><path d="M1.198,0.633c-0.083,0.104 -0.124,0.233 -0.124,0.386c-0,0.194 0.037,0.353 0.11,0.477l-0.103,0.057c-0.057,-0.071 -0.106,-0.153 -0.146,-0.247c-0.055,-0.128 -0.083,-0.254 -0.083,-0.379c0,-0.187 0.04,-0.329 0.12,-0.427l0.226,0.133Z" style="fill:#484662;fill-rule:nonzero;"/><path d="M1.865,0.962c-0.019,-0.006 -0.044,-0.009 -0.074,-0.009c-0.057,0 -0.103,0.015 -0.138,0.045c-0.04,0.033 -0.06,0.081 -0.06,0.143c-0,0.049 0.016,0.089 0.047,0.121c0.032,0.031 0.073,0.047 0.125,0.047c0.035,-0 0.068,-0.009 0.099,-0.026c-0.003,0.014 -0.009,0.041 -0.018,0.08c-0.005,0.025 -0.009,0.052 -0.014,0.08c-0.04,0.015 -0.09,0.023 -0.152,0.023c-0.112,0 -0.208,-0.038 -0.288,-0.113c-0.086,-0.082 -0.129,-0.189 -0.129,-0.32c-0,-0.122 0.037,-0.22 0.111,-0.295c0.079,-0.08 0.189,-0.12 0.329,-0.12c0.067,-0 0.115,0.004 0.145,0.011l0.017,0.333Z" style="fill:#484662;fill-rule:nonzero;"/><path d="M2.623,1.018c0,0.125 -0.032,0.231 -0.097,0.317c-0.067,0.09 -0.154,0.135 -0.259,0.135c-0.109,0 -0.196,-0.045 -0.264,-0.136c-0.063,-0.086 -0.095,-0.191 -0.095,-0.316c0,-0.133 0.035,-0.238 0.104,-0.314c0.065,-0.071 0.15,-0.107 0.255,-0.107c0.103,0 0.188,0.036 0.253,0.108c0.069,0.076 0.103,0.181 0.103,0.313Zm-0.255,0.094c-0,-0.099 -0.033,-0.148 -0.1,-0.148c-0.065,0 -0.097,0.05 -0.097,0.149c0,0.039 0.009,0.076 0.025,0.111c0.02,0.038 0.043,0.057 0.071,0.057c0.027,0 0.051,-0.019 0.072,-0.058c0.019,-0.036 0.029,-0.073 0.029,-0.111Z" style="fill:#484662;fill-rule:nonzero;"/><path d="M3.217,0.628l-0.022,0.334c-0.013,-0.002 -0.04,-0.005 -0.083,-0.009c-0.025,-0.001 -0.055,-0.002 -0.09,-0.002l-0.009,0.171c0.036,0 0.093,-0.002 0.169,-0.008c-0.004,0.016 -0.009,0.042 -0.017,0.078c-0.004,0.022 -0.008,0.048 -0.013,0.078c-0.009,-0.002 -0.032,-0.005 -0.068,-0.009c-0.026,-0.002 -0.053,-0.003 -0.078,-0.002l-0.005,0.184l-0.297,0l-0.017,-0.416c-0.003,-0.095 -0.011,-0.228 -0.024,-0.399l0.554,0Z" style="fill:#484662;fill-rule:nonzero;"/><path d="M3.81,0.628l-0.021,0.334c-0.014,-0.002 -0.041,-0.005 -0.084,-0.009c-0.025,-0.001 -0.055,-0.002 -0.09,-0.002l-0.009,0.171c0.036,0 0.093,-0.002 0.169,-0.008c-0.004,0.016 -0.009,0.042 -0.017,0.078c-0.004,0.022 -0.008,0.048 -0.012,0.078c-0.01,-0.002 -0.033,-0.005 -0.069,-0.009c-0.026,-0.002 -0.053,-0.003 -0.078,-0.002l-0.005,0.184l-0.297,0l-0.017,-0.416c-0.002,-0.095 -0.01,-0.228 -0.024,-0.399l0.554,0Z" style="fill:#484662;fill-rule:nonzero;"/><path d="M4.407,0.628l-0.023,0.336c-0.013,-0.002 -0.041,-0.006 -0.085,-0.011c-0.029,-0.003 -0.062,-0.005 -0.097,-0.005l-0.008,0.101c0.039,0.001 0.102,0 0.19,-0.003c-0.004,0.014 -0.01,0.038 -0.018,0.074c-0.005,0.021 -0.01,0.046 -0.013,0.074c-0.011,-0.002 -0.036,-0.005 -0.077,-0.009c-0.02,-0.001 -0.048,-0.002 -0.085,-0.001l-0.006,0.118c0.027,-0 0.076,-0.003 0.147,-0.007c0.013,-0.001 0.035,-0.005 0.066,-0.012c-0.003,0.01 -0.009,0.037 -0.02,0.079c-0.004,0.021 -0.01,0.048 -0.018,0.081l-0.474,0l-0.016,-0.416c-0.003,-0.095 -0.009,-0.228 -0.02,-0.399l0.557,0Z" style="fill:#484662;fill-rule:nonzero;"/><path d="M5.01,0.628l-0.022,0.336c-0.014,-0.002 -0.042,-0.006 -0.085,-0.011c-0.03,-0.003 -0.063,-0.005 -0.098,-0.005l-0.008,0.101c0.039,0.001 0.102,0 0.191,-0.003c-0.004,0.014 -0.011,0.038 -0.019,0.074c-0.005,0.021 -0.009,0.046 -0.013,0.074c-0.011,-0.002 -0.036,-0.005 -0.077,-0.009c-0.019,-0.001 -0.048,-0.002 -0.085,-0.001l-0.005,0.118c0.026,-0 0.075,-0.003 0.146,-0.007c0.013,-0.001 0.036,-0.005 0.066,-0.012c-0.003,0.01 -0.009,0.037 -0.019,0.079c-0.005,0.021 -0.011,0.048 -0.018,0.081l-0.475,0l-0.016,-0.416c-0.002,-0.095 -0.009,-0.228 -0.02,-0.399l0.557,0Z" style="fill:#484662;fill-rule:nonzero;"/><path d="M5.435,0.628c-0.02,0.084 -0.04,0.18 -0.061,0.287c-0.01,0.049 -0.02,0.098 -0.031,0.147c-0.011,0.055 -0.016,0.092 -0.016,0.112c-0,0.006 -0,0.011 0.001,0.014c-0.002,0 -0.021,0.003 -0.057,0.006c-0.02,0.003 -0.042,0.006 -0.065,0.01c-0.008,-0.058 -0.023,-0.152 -0.044,-0.283c-0.013,-0.06 -0.032,-0.158 -0.057,-0.293l0.33,0Zm-0.059,0.734c0,0.027 -0.011,0.05 -0.035,0.069c-0.023,0.019 -0.051,0.029 -0.082,0.029c-0.033,-0 -0.062,-0.01 -0.086,-0.029c-0.023,-0.019 -0.035,-0.042 -0.035,-0.071c-0,-0.028 0.011,-0.052 0.034,-0.07c0.024,-0.018 0.052,-0.027 0.087,-0.027c0.032,-0 0.059,0.009 0.082,0.027c0.024,0.019 0.035,0.043 0.035,0.072Z" style="fill:#484662;fill-rule:nonzero;"/><path d="M5.898,0.927c-0,0.125 -0.028,0.252 -0.082,0.379c-0.041,0.094 -0.09,0.177 -0.147,0.247l-0.102,-0.057c0.074,-0.127 0.111,-0.286 0.111,-0.477c-0.001,-0.153 -0.043,-0.282 -0.124,-0.386l0.225,-0.133c0.079,0.098 0.119,0.24 0.119,0.427Z" style="fill:#484662;fill-rule:nonzero;"/><path d="M3.237,1.614l0.255,0l-0,0.331l0.236,0l-0.364,0.441l-0.364,-0.441l0.237,0l-0,-0.331Z" style="fill:#484662;"/></g></g></svg>