<?xml version="1.0" encoding="UTF-8" standalone="no"?><!DOCTYPE svg PUBLIC "-//W3C//DTD SVG 1.1//EN" "http://www.w3.org/Graphics/SVG/1.1/DTD/svg11.dtd"><svg width="100%" height="100%" viewBox="0 0 8 8" version="1.1" xmlns="http://www.w3.org/2000/svg" xmlns:xlink="http://www.w3.org/1999/xlink" xml:space="preserve" xmlns:serif="http://www.serif.com/" style="fill-rule:evenodd;clip-rule:evenodd;stroke-linecap:round;stroke-linejoin:round;stroke-miterlimit:1.5;"><g><path d="M7.825,2.939c0.001,-1.027 -0.823,-1.852 -1.851,-1.851l-3.948,0c-1.028,-0.001 -1.852,0.824 -1.851,1.851l-0,2.122c-0.001,1.027 0.831,1.859 1.851,1.851l3.948,-0c1.02,0.008 1.852,-0.824 1.844,-1.844l0.007,-2.129Zm-0.791,-0.007c0.009,-0.58 -0.472,-1.061 -1.06,-1.061l-3.948,-0c-0.588,-0 -1.061,0.473 -1.069,1.069l0.009,2.128c-0.016,0.588 0.464,1.069 1.06,1.061l3.948,0c0.588,0 1.061,-0.473 1.069,-1.069l-0.009,-2.128Z" style="fill:#d1c5b6;"/><path d="M3.965,4.949l-2.518,-3.338l5,0.041l-2.482,3.297Z" style="fill:none;stroke:#d1c5b6;stroke-width:0.8px;"/></g></svg>