<?xml version="1.0" encoding="UTF-8" standalone="no"?><!DOCTYPE svg PUBLIC "-//W3C//DTD SVG 1.1//EN" "http://www.w3.org/Graphics/SVG/1.1/DTD/svg11.dtd"><svg width="100%" height="100%" viewBox="0 0 8 8" version="1.1" xmlns="http://www.w3.org/2000/svg" xmlns:xlink="http://www.w3.org/1999/xlink" xml:space="preserve" xmlns:serif="http://www.serif.com/" style="fill-rule:evenodd;clip-rule:evenodd;stroke-linejoin:round;stroke-miterlimit:2;"><g><path d="M4.636,1.112c0,-0 0.108,-0.635 -0.312,-0.925c-0.171,-0.118 -0.389,-0.124 -0.553,0.099c-0.164,0.223 -0.008,0.512 0.215,0.519c0.598,0.022 0.55,0.114 0.65,0.307Z" style="fill:#a38686;"/><path d="M1.561,1.75c1.073,0.432 3.26,-0.934 3.734,-0.373c0.63,0.745 -0.149,2.109 -1.411,2.837c-1.261,0.729 -2.673,0.398 -2.884,-0.546c-0.18,-0.803 -0.587,-0.487 -0.877,-0.923c-0.304,-0.459 0.359,-1.429 1.438,-0.995Z" style="fill:#a38686;"/><path d="M4.5,1c0.049,-0.038 -2.151,1.425 -3.009,1.068c-0.477,-0.199 -0.807,-0.125 -1.027,0.121c-0.278,0.311 0.032,0.569 0.392,0.676c0.509,0.151 3.644,-1.865 3.644,-1.865Z" style="fill:#563f3f;"/><g><path d="M4.723,0.522l-4.399,2.54l-0.059,0.313l4.815,-2.78l-0.357,-0.073Z" style="fill:#898d9b;"/><path d="M4.723,0.522l-4.399,2.54l-0.059,0.313l4.815,-2.78l-0.357,-0.073Z"/><g><path d="M7.115,4.754l0.195,0.497c0.077,0.179 0.098,0.581 -0.276,0.797c-1.007,0.641 -2.039,1.229 -3.087,1.782c-0.224,0.129 -0.592,0.083 -0.819,-0.165l-1.334,-1.853l-1.442,-2.066l-0.135,-0.234c-0.021,-0.036 -0.208,-0.269 0.107,-0.45l0.32,0.1l4.068,-2.246l-0.096,-0.332l0.217,-0.126c0.122,-0.07 0.312,-0.007 0.361,0.077l0.131,0.228c0.15,-0.622 0.993,-0.805 1.578,-0.556c0.628,0.266 0.979,1.006 0.953,2.057c-0.017,0.652 -0.355,1.338 -0.758,1.963c-0.028,0.043 -0.066,0.189 -0.043,0.281c0.027,0.104 0.062,0.244 0.06,0.246Zm-0.524,-1.133c-0.005,0.009 -0.093,-0.211 -0.221,-0.5c-0.094,-0.213 -0.177,-0.398 -0.277,-0.634c-0.039,-0.089 0.099,-0.161 0.053,-0.303c-0.091,-0.28 -0.038,-0.49 -0.038,-0.49c0.092,-0.546 0.322,-0.565 0.572,-0.445c0.252,0.12 0.473,0.751 0.449,1.186c-0.018,0.324 -0.396,0.934 -0.538,1.186Z"/><path d="M6.826,4.66l0.299,0.661c0.071,0.168 0.043,0.39 -0.113,0.481c-1.047,0.663 -2.121,1.278 -3.217,1.857c-0.136,0.058 -0.356,-0.001 -0.472,-0.144l-2.965,-4.122c-0.059,-0.101 0.035,-0.155 0.087,-0.186c1.489,-0.807 2.953,-1.65 4.388,-2.533c0.112,-0.064 0.159,-0.061 0.205,0.017l0.285,0.632c-0,0 0.02,0.002 0.023,-0.014c0.136,-0.814 0.87,-1.091 1.408,-0.879c0.579,0.228 0.934,1.018 0.887,1.977c-0.014,0.606 -0.473,1.244 -0.85,1.827c-0.025,0.039 0.052,0.137 0.074,0.222c0.024,0.096 -0.036,0.201 -0.039,0.204Zm-0.295,-0.659l-0.767,-1.697c0.094,-0.042 0.104,-0.12 0.086,-0.206c-0.075,-0.202 -0.089,-0.412 -0.056,-0.63c0.142,-0.683 0.73,-0.806 1.082,-0.473c0.394,0.374 0.514,0.758 0.481,1.483c-0.009,0.489 -0.486,1.077 -0.826,1.523Z" style="fill:#898d9b;"/><path d="M4.75,0.863c0.017,-0.009 0.038,-0.005 0.047,0.01c0.009,0.016 0.002,0.036 -0.015,0.046c-0.016,0.01 -0.037,0.005 -0.046,-0.01c-0.009,-0.016 -0.002,-0.036 0.014,-0.046Z"/><path d="M4.446,1.035c0.008,-0.004 0.017,-0.002 0.021,0.005c0.004,0.007 0.001,0.016 -0.006,0.02c-0.008,0.004 -0.017,0.002 -0.021,-0.005c-0.004,-0.007 -0.001,-0.016 0.006,-0.02Z"/><path d="M4.958,0.934c0.003,-0.002 0.008,0 0.01,0.004c0.003,0.004 0.002,0.009 -0.001,0.011c-0.003,0.002 -0.008,0 -0.01,-0.004c-0.003,-0.005 -0.002,-0.01 0.001,-0.011Z"/><path d="M4.868,1.054c0.003,-0.001 0.006,0 0.008,0.002c0.001,0.003 0,0.006 -0.002,0.008c-0.003,0.001 -0.006,0 -0.008,-0.002c-0.001,-0.003 0,-0.006 0.002,-0.008Z"/><path d="M5.212,1.027c-1.542,0.921 -3.098,1.818 -4.666,2.693l0.136,0.236c1.558,-0.864 3.112,-1.759 4.666,-2.694l-0.136,-0.235Z"/><path d="M6.889,4.704c-1.305,0.798 -2.632,1.56 -3.975,2.295l0.136,0.235c1.341,-0.738 2.667,-1.5 3.975,-2.295l-0.136,-0.235Z"/><g><path d="M3.728,2.867c0.108,0.217 0.31,0.612 0.604,1.184c0.184,0.349 0.397,0.739 0.637,1.171l-0.524,0.302l-0.423,-0.697l-0.072,1.057l-0.988,-0.437l0.39,0.708l-0.522,0.301c-0.138,-0.224 -0.375,-0.603 -0.709,-1.138c-0.195,-0.306 -0.439,-0.672 -0.733,-1.1l0.83,-0.479c0.071,0.056 0.189,0.146 0.353,0.268c0.121,0.085 0.274,0.179 0.459,0.283c0.002,-0.092 -0.002,-0.276 -0.014,-0.553c-0.006,-0.103 -0.021,-0.246 -0.047,-0.432l0.759,-0.438Z" style="fill-rule:nonzero;"/><path d="M5.52,2.619c0.112,0.194 0.167,0.366 0.164,0.517c-0.003,0.142 -0.058,0.308 -0.169,0.497c0.25,-0.024 0.436,0.07 0.559,0.283c0.1,0.173 0.115,0.341 0.047,0.506c-0.06,0.149 -0.177,0.274 -0.349,0.373c-0.167,0.096 -0.271,0.148 -0.314,0.157l-0.178,-0.195c-0.044,-0.047 -0.104,-0.109 -0.18,-0.189c0.125,-0.023 0.227,-0.057 0.303,-0.101c0.068,-0.039 0.112,-0.091 0.131,-0.157c0.021,-0.067 0.013,-0.131 -0.024,-0.194c-0.034,-0.06 -0.085,-0.098 -0.151,-0.115c-0.073,-0.018 -0.15,-0.003 -0.231,0.043c-0.019,0.011 -0.038,0.024 -0.057,0.038l-0.231,-0.271c0.078,-0.059 0.121,-0.128 0.128,-0.208c0.006,-0.061 -0.007,-0.117 -0.037,-0.168c-0.078,-0.135 -0.19,-0.161 -0.337,-0.076c-0.084,0.048 -0.172,0.123 -0.265,0.226l-0.379,-0.787c0.133,-0.159 0.295,-0.293 0.485,-0.401c0.206,-0.116 0.412,-0.155 0.617,-0.116c0.205,0.039 0.361,0.152 0.468,0.338Z" style="fill-rule:nonzero;"/></g><path d="M1.103,4.34c0.017,-0.009 0.038,-0.005 0.047,0.011c0.009,0.015 0.002,0.035 -0.015,0.045c-0.016,0.01 -0.037,0.005 -0.046,-0.01c-0.009,-0.015 -0.002,-0.036 0.014,-0.046Z"/><path d="M2.477,3.531c0.007,-0.004 0.017,-0.002 0.021,0.005c0.004,0.006 0.001,0.015 -0.007,0.02c-0.007,0.004 -0.016,0.002 -0.02,-0.005c-0.004,-0.007 -0.001,-0.016 0.006,-0.02Z"/><path d="M1.497,3.71c0.003,-0.002 0.008,0 0.01,0.004c0.003,0.004 0.002,0.009 -0.001,0.011c-0.003,0.002 -0.008,0 -0.01,-0.004c-0.003,-0.004 -0.002,-0.009 0.001,-0.011Z"/><path d="M0.897,3.148c0.011,-0.006 0.025,-0.002 0.031,0.009c0.006,0.011 0.003,0.025 -0.008,0.031c-0.01,0.006 -0.024,0.002 -0.03,-0.009c-0.007,-0.011 -0.003,-0.025 0.007,-0.031Z"/><path d="M1.176,2.922c0.008,-0.004 0.017,-0.002 0.021,0.005c0.004,0.006 0.001,0.015 -0.006,0.02c-0.008,0.004 -0.017,0.002 -0.021,-0.005c-0.004,-0.007 -0.001,-0.016 0.006,-0.02Z"/><path d="M0.411,3.315c0.003,-0.002 0.007,0 0.01,0.005c0.002,0.004 0.002,0.009 -0.001,0.011c-0.004,0.001 -0.008,-0.001 -0.011,-0.005c-0.002,-0.004 -0.001,-0.009 0.002,-0.011Z"/><path d="M0.637,3.593c0.003,-0.002 0.006,-0.001 0.008,0.002c0.001,0.002 0,0.006 -0.002,0.007c-0.003,0.002 -0.006,0.001 -0.008,-0.002c-0.001,-0.002 0,-0.006 0.002,-0.007Z"/><path d="M1.093,4.086c0.003,-0.001 0.006,0 0.008,0.002c0.001,0.003 0,0.006 -0.002,0.008c-0.003,0.001 -0.006,0 -0.008,-0.002c-0.001,-0.003 -0.001,-0.006 0.002,-0.008Z"/><path d="M6.984,5.624c0.016,-0.01 0.037,-0.005 0.046,0.01c0.009,0.015 0.002,0.036 -0.014,0.046c-0.017,0.009 -0.038,0.005 -0.047,-0.011c-0.009,-0.015 -0.002,-0.035 0.015,-0.045Z"/><path d="M6.708,5.788c0.008,-0.004 0.017,-0.002 0.021,0.005c0.004,0.007 0.001,0.016 -0.006,0.02c-0.008,0.004 -0.017,0.002 -0.021,-0.005c-0.004,-0.007 -0.001,-0.016 0.006,-0.02Z"/><path d="M5.108,4.209c0.003,-0.002 0.007,-0 0.01,0.004c0.002,0.005 0.002,0.009 -0.002,0.011c-0.003,0.002 -0.007,-0 -0.01,-0.004c-0.002,-0.004 -0.002,-0.009 0.002,-0.011Z"/><path d="M5.059,5.222c0.002,-0.001 0.006,0 0.007,0.002c0.002,0.003 0.001,0.006 -0.002,0.008c-0.003,0.001 -0.006,0 -0.007,-0.002c-0.002,-0.003 -0.001,-0.006 0.002,-0.008Z"/><path d="M4.537,6.627c0.017,-0.01 0.038,-0.006 0.047,0.01c0.009,0.015 0.002,0.035 -0.014,0.045c-0.017,0.01 -0.038,0.005 -0.047,-0.01c-0.009,-0.015 -0.002,-0.036 0.014,-0.045Z"/><path d="M3.161,1.816c0.007,-0.005 0.016,-0.003 0.02,0.004c0.004,0.007 0.001,0.016 -0.006,0.021c-0.007,0.004 -0.017,0.002 -0.021,-0.005c-0.004,-0.007 -0.001,-0.016 0.007,-0.02Z"/><path d="M2.769,2.127c0.003,-0.002 0.008,-0 0.01,0.005c0.003,0.004 0.002,0.009 -0.001,0.011c-0.003,0.001 -0.008,-0.001 -0.01,-0.005c-0.003,-0.004 -0.002,-0.009 0.001,-0.011Z"/><path d="M3.669,6.318c0.017,-0.01 0.038,-0.005 0.047,0.01c0.008,0.015 0.002,0.036 -0.015,0.046c-0.017,0.009 -0.038,0.005 -0.047,-0.011c-0.008,-0.015 -0.002,-0.035 0.015,-0.045Z"/><path d="M2.776,6.486c0.008,-0.004 0.017,-0.002 0.021,0.005c0.004,0.007 0.001,0.016 -0.006,0.02c-0.008,0.005 -0.017,0.002 -0.021,-0.004c-0.004,-0.007 -0.001,-0.016 0.006,-0.021Z"/><path d="M3.123,6.554c0.003,-0.002 0.008,0 0.01,0.005c0.002,0.004 0.002,0.009 -0.001,0.011c-0.004,0.001 -0.008,-0.001 -0.01,-0.005c-0.003,-0.004 -0.002,-0.009 0.001,-0.011Z"/><path d="M2.49,6.002c0.003,-0.001 0.006,0 0.008,0.002c0.001,0.003 0,0.006 -0.002,0.008c-0.003,0.001 -0.006,0 -0.008,-0.002c-0.001,-0.003 0,-0.006 0.002,-0.008Z"/><path d="M3.593,7.424c0.017,-0.009 0.038,-0.005 0.047,0.011c0.009,0.015 0.002,0.035 -0.015,0.045c-0.017,0.01 -0.037,0.005 -0.046,-0.01c-0.009,-0.015 -0.003,-0.036 0.014,-0.046Z"/><path d="M4.254,7.237c0.008,-0.005 0.017,-0.002 0.021,0.004c0.004,0.007 0.001,0.016 -0.006,0.021c-0.008,0.004 -0.017,0.002 -0.021,-0.005c-0.004,-0.007 -0.001,-0.016 0.006,-0.02Z"/><path d="M3.965,7.336c0.003,-0.002 0.007,0 0.01,0.005c0.002,0.004 0.002,0.009 -0.001,0.011c-0.004,0.001 -0.008,0 -0.011,-0.005c-0.002,-0.004 -0.001,-0.009 0.002,-0.011Z"/><path d="M3.895,7.443c0.003,-0.002 0.006,-0.001 0.007,0.002c0.002,0.003 0.001,0.006 -0.002,0.008c-0.002,0.001 -0.006,-0 -0.007,-0.002c-0.002,-0.003 -0.001,-0.006 0.002,-0.008Z"/><path d="M4.187,5.551c0.019,0.003 0.034,0.013 0.033,0.022c-0.002,0.008 -0.018,0.013 -0.038,0.01c-0.02,-0.004 -0.033,-0.012 -0.033,-0.022c0.002,-0.008 0.019,-0.014 0.038,-0.01Z"/><path d="M5.762,2.647c0.008,-0.004 0.017,-0.002 0.021,0.005c0.004,0.007 0.001,0.016 -0.006,0.02c-0.008,0.004 -0.017,0.002 -0.021,-0.005c-0.004,-0.007 -0.001,-0.016 0.006,-0.02Z"/><path d="M5.988,3.093c0.003,-0.001 0.008,0 0.01,0.005c0.003,0.004 0.002,0.009 -0.001,0.011c-0.003,0.002 -0.008,0 -0.01,-0.005c-0.003,-0.004 -0.002,-0.009 0.001,-0.011Z"/><path d="M5.819,3.104c0.003,-0.002 0.007,-0.001 0.008,0.002c0.002,0.003 0.001,0.006 -0.002,0.008c-0.003,0.001 -0.006,0 -0.008,-0.002c-0.001,-0.003 0,-0.006 0.002,-0.008Z"/><path d="M6.341,0.499c0.008,-0.005 0.017,-0.003 0.021,0.004c0.004,0.007 0.001,0.016 -0.006,0.02c-0.008,0.005 -0.017,0.003 -0.021,-0.004c-0.004,-0.007 -0.001,-0.016 0.006,-0.02Z"/><path d="M4.964,0.698c0.003,-0.002 0.007,-0 0.01,0.004c0.002,0.005 0.002,0.01 -0.001,0.011c-0.004,0.002 -0.008,-0 -0.011,-0.004c-0.002,-0.004 -0.001,-0.009 0.002,-0.011Z"/><path d="M5.679,1.215c0.003,-0.002 0.006,-0.001 0.008,0.002c0.001,0.003 0.001,0.006 -0.002,0.008c-0.003,0.001 -0.006,0 -0.008,-0.002c-0.001,-0.003 0,-0.006 0.002,-0.008Z"/></g></g><path d="M1.153,1.346c0,0 0.183,-0.592 -0.206,-0.992c-0.158,-0.163 -0.377,-0.229 -0.568,-0.055c-0.191,0.173 -0.069,0.499 0.154,0.568c0.6,0.186 0.541,0.263 0.62,0.479Z" style="fill:#a38686;"/><path d="M0.133,1.276c0.063,-0.119 0.183,-0.114 0.305,-0.114c0.215,-0.001 0.261,0.135 0.076,0.317c-0.095,0.094 -0.2,0.171 -0.305,0.115c-0.106,-0.056 -0.14,-0.198 -0.076,-0.318Z" style="fill:#a38686;"/><path d="M0.214,5.188c-0.1,-0.116 -0.052,-0.274 -0.009,-0.435c0.075,-0.284 0.231,-0.308 0.353,-0.013c0.063,0.152 0.105,0.312 0.01,0.435c-0.095,0.125 -0.253,0.131 -0.354,0.013Z" style="fill:#a38686;"/><path d="M1.621,3.68c-0.126,-0.087 -0.121,-0.251 -0.121,-0.418c-0.001,-0.294 0.144,-0.357 0.338,-0.104c0.1,0.13 0.182,0.274 0.122,0.418c-0.06,0.145 -0.211,0.191 -0.339,0.104Z" style="fill:#a38686;"/><path d="M1.549,0.478c0.043,0.049 0.008,0.114 -0.025,0.181c-0.057,0.117 -0.139,0.125 -0.183,0.001c-0.022,-0.064 -0.033,-0.131 0.025,-0.181c0.057,-0.051 0.139,-0.051 0.183,-0.001Z" style="fill:#a38686;"/><path d="M2.537,4.482c-0.054,-0.036 -0.037,-0.108 -0.023,-0.181c0.025,-0.128 0.102,-0.157 0.177,-0.049c0.038,0.056 0.066,0.118 0.023,0.182c-0.042,0.064 -0.121,0.085 -0.177,0.048Z" style="fill:#a38686;"/><path d="M2.588,1.306c0.013,0.042 -0.026,0.072 -0.065,0.104c-0.067,0.057 -0.12,0.04 -0.113,-0.049c0.004,-0.045 0.015,-0.09 0.065,-0.105c0.049,-0.016 0.099,0.007 0.113,0.05Z" style="fill:#a38686;"/><path d="M1.856,0.699c-0.173,0.003 -0.236,0.146 -0.308,0.288c-0.126,0.249 0.002,0.383 0.317,0.277c0.162,-0.054 0.311,-0.131 0.308,-0.287c-0.002,-0.156 -0.144,-0.281 -0.317,-0.278Z" style="fill:#a38686;"/><path d="M3.499,3.195c-0.012,-0.245 -0.217,-0.328 -0.421,-0.423c-0.358,-0.167 -0.542,0.02 -0.378,0.461c0.084,0.227 0.199,0.434 0.42,0.423c0.221,-0.01 0.391,-0.216 0.379,-0.461Z" style="fill:#a38686;"/></g></svg>