<?xml version="1.0" encoding="UTF-8" standalone="no"?><!DOCTYPE svg PUBLIC "-//W3C//DTD SVG 1.1//EN" "http://www.w3.org/Graphics/SVG/1.1/DTD/svg11.dtd"><svg width="100%" height="100%" viewBox="0 0 8 8" version="1.1" xmlns="http://www.w3.org/2000/svg" xmlns:xlink="http://www.w3.org/1999/xlink" xml:space="preserve" xmlns:serif="http://www.serif.com/" style="fill-rule:evenodd;clip-rule:evenodd;stroke-linecap:round;stroke-linejoin:round;stroke-miterlimit:1.5;"><g><g><g><path d="M3.521,0.512c-0.415,-0.416 -1.09,-0.416 -1.505,-0l-1.504,1.504c-0.416,0.415 -0.416,1.09 -0,1.505l3.967,3.967c0.415,0.416 1.09,0.416 1.505,0l1.504,-1.504c0.416,-0.415 0.416,-1.09 0,-1.505l-3.967,-3.967Z" style="stroke:#000;stroke-width:0.28px;"/><path d="M3.485,0.773c-0.374,-0.374 -0.982,-0.374 -1.356,0l-1.356,1.356c-0.374,0.374 -0.374,0.982 0,1.356l3.743,3.743c0.374,0.374 0.981,0.374 1.356,-0l1.356,-1.356c0.374,-0.375 0.374,-0.982 -0,-1.356l-3.743,-3.743Z" style="stroke:#ebebeb;stroke-width:0.27px;"/><path d="M3.485,0.773c-0.374,-0.374 -0.982,-0.374 -1.356,0l-1.356,1.356c-0.374,0.374 -0.374,0.982 0,1.356l3.743,3.743c0.374,0.374 0.981,0.374 1.356,-0l1.356,-1.356c0.374,-0.375 0.374,-0.982 -0,-1.356l-3.743,-3.743Z" style="fill:none;stroke:#898d9b;stroke-width:0.08px;"/><g><path d="M2.203,2.203c0.553,-0.552 1.462,-0.54 2.03,0.028c0.568,0.568 0.58,1.477 0.028,2.03c-0.553,0.552 -1.462,0.54 -2.03,-0.028c-0.568,-0.568 -0.58,-1.477 -0.028,-2.03Z" style="fill:#ffd700;"/><g><g><path d="M2.726,3.966l1.228,-1.252l0.21,0.341c0.044,0.048 0.088,0.097 0.126,0.151c0.024,0.038 0.05,0.075 0.077,0.111l0.17,0.218l-1.002,1.002l-0.127,-0.098l-0.227,-0.15c-0.056,-0.041 -0.117,-0.091 -0.181,-0.145l-0.274,-0.178Z" style="stroke:#030303;stroke-width:0.04px;"/><path d="M4.554,3.551c0.001,-0.001 0.001,-0.004 0.001,-0.004l-0.032,-0.044c-0.01,0.006 -0.023,0.01 -0.028,0.018c-0.013,0.022 -0.031,0.035 -0.055,0.038c-0.008,0.002 -0.034,0.025 -0.044,0.038c-0.018,0.023 -0.013,0.018 -0.037,0.036c-0.01,0.019 -0.037,0.051 -0.04,0.064c-0.005,0.026 -0.025,0.041 -0.047,0.053c-0.011,0.006 -0.037,0.032 -0.042,0.041c-0.012,0.023 -0.024,0.04 -0.052,0.057c-0.009,0.006 -0.036,0.029 -0.044,0.04c-0.023,0.03 -0.039,0.052 -0.078,0.072c-0.011,0.013 -0.044,0.026 -0.048,0.035c-0.016,0.04 -0.042,0.069 -0.089,0.089c-0.007,0.003 -0.01,0.027 -0.021,0.035c-0.01,0.006 -0.024,0.019 -0.027,0.026c-0.017,0.033 -0.044,0.066 -0.081,0.085c-0.004,0.002 -0.012,0.012 -0.017,0.019c-0.007,0.007 -0.022,0.013 -0.023,0.017c-0.006,0.023 -0.02,0.035 -0.043,0.044c-0.007,0.003 -0.036,0.035 -0.046,0.045c-0.026,0.044 -0.042,0.053 -0.073,0.078c-0.007,0.005 -0.009,0.016 -0.016,0.022c-0.005,0.004 -0.016,0.01 -0.018,0.014c-0.005,0.015 -0.018,0.024 -0.033,0.028c-0.002,0 -0.007,0.005 -0.01,0.008l0.036,0.05c-0,0 0.003,0 0.004,-0.001c0.085,-0.08 0.196,-0.131 0.282,-0.218c0.099,-0.1 0.216,-0.216 0.383,-0.383c0.101,-0.102 0.196,-0.256 0.338,-0.402Z" style="fill:#030303;"/><g><path d="M2.935,4.039c-0.011,0.045 -0.081,0.083 -0.103,0.088c-0.177,0.037 -0.379,-0.021 -0.527,-0.169c-0.176,-0.176 -0.208,-0.34 -0.123,-0.536c-0.057,-0.104 -0.063,-0.316 0.017,-0.396c0.016,-0.015 -0.066,-0.1 0.039,-0.178c-0.099,-0.206 -0.016,-0.311 0.141,-0.469c0.158,-0.157 0.372,-0.301 0.608,-0.128c0.024,-0.133 0.296,-0.25 0.405,-0.039c0.196,-0.085 0.39,-0.083 0.566,0.093c0.148,0.148 0.206,0.35 0.169,0.527c-0.003,0.102 -0.135,0.228 -0.204,0.249c-0.03,0.009 -0.082,0.078 -0.096,0.1c-0.065,0.099 -0.057,0.133 -0.156,0.199c-0.044,0.03 -0.128,0.067 -0.19,0.097c0.006,0.044 -0.016,0.11 -0.051,0.144c0.005,0.1 -0.032,0.157 -0.11,0.237c-0.078,0.079 -0.181,0.113 -0.269,0.099c-0.004,0.038 -0.068,0.1 -0.116,0.082Z" style="fill:#030303;"/></g></g><g><path d="M2.769,3.911l1.126,-1.149l0.198,0.319c0.041,0.045 0.082,0.091 0.118,0.141c0.023,0.036 0.047,0.07 0.073,0.104l0.16,0.204l-0.919,0.919l-0.118,-0.094l-0.213,-0.14c-0.052,-0.039 -0.109,-0.085 -0.169,-0.136l-0.256,-0.168Z" style="fill:#e57676;fill-opacity:0.98;stroke:#8b1818;stroke-width:0.04px;"/><path d="M3.021,3.904l-0.03,0.038l0.091,0.084l0.168,0.123l0.194,0.166l0.108,0.083l0.03,-0.039c-0.047,-0.039 -0.082,-0.078 -0.131,-0.118c-0.056,-0.044 -0.128,-0.09 -0.221,-0.164c-0.057,-0.046 -0.127,-0.109 -0.209,-0.173Z" style="fill:#e57676;"/><path d="M3.021,3.904l-0.03,0.038l0.091,0.084l0.168,0.123l0.194,0.166l0.108,0.083l0.03,-0.039c-0.047,-0.039 -0.082,-0.078 -0.131,-0.118c-0.056,-0.044 -0.128,-0.09 -0.221,-0.164c-0.057,-0.046 -0.127,-0.109 -0.209,-0.173Z" style="fill:#8b1818;"/><path d="M4.46,3.545c0.001,-0.001 0.001,-0.004 0.001,-0.004l-0.031,-0.04c-0.009,0.005 -0.021,0.008 -0.026,0.015c-0.011,0.021 -0.028,0.032 -0.05,0.035c-0.007,0.001 -0.031,0.022 -0.041,0.034c-0.016,0.022 -0.011,0.017 -0.034,0.034c-0.008,0.017 -0.033,0.047 -0.036,0.059c-0.005,0.023 -0.023,0.037 -0.043,0.048c-0.011,0.005 -0.034,0.03 -0.038,0.038c-0.012,0.022 -0.022,0.037 -0.047,0.052c-0.009,0.005 -0.035,0.027 -0.042,0.036c-0.02,0.028 -0.036,0.048 -0.071,0.067c-0.01,0.012 -0.041,0.023 -0.044,0.031c-0.015,0.037 -0.039,0.064 -0.082,0.082c-0.005,0.003 -0.009,0.025 -0.019,0.032c-0.008,0.006 -0.021,0.018 -0.024,0.024c-0.016,0.031 -0.041,0.061 -0.074,0.078c-0.005,0.002 -0.011,0.012 -0.017,0.018c-0.005,0.005 -0.02,0.012 -0.021,0.015c-0.005,0.022 -0.018,0.032 -0.038,0.041c-0.007,0.002 -0.034,0.031 -0.043,0.04c-0.024,0.042 -0.039,0.05 -0.067,0.073c-0.005,0.004 -0.007,0.014 -0.015,0.019c-0.004,0.004 -0.015,0.01 -0.016,0.013c-0.004,0.014 -0.017,0.022 -0.031,0.026c-0.002,0 -0.006,0.005 -0.009,0.007l0.034,0.047c0,0 0.003,0.001 0.004,-0.001c0.078,-0.073 0.181,-0.119 0.259,-0.199c0.09,-0.092 0.199,-0.198 0.351,-0.351c0.093,-0.094 0.18,-0.236 0.31,-0.369Z" style="fill:#e57676;"/><path d="M4.46,3.545c0.001,-0.001 0.001,-0.004 0.001,-0.004l-0.031,-0.04c-0.009,0.005 -0.021,0.008 -0.026,0.015c-0.011,0.021 -0.028,0.032 -0.05,0.035c-0.007,0.001 -0.031,0.022 -0.041,0.034c-0.016,0.022 -0.011,0.017 -0.034,0.034c-0.008,0.017 -0.033,0.047 -0.036,0.059c-0.005,0.023 -0.023,0.037 -0.043,0.048c-0.011,0.005 -0.034,0.03 -0.038,0.038c-0.012,0.022 -0.022,0.037 -0.047,0.052c-0.009,0.005 -0.035,0.027 -0.042,0.036c-0.02,0.028 -0.036,0.048 -0.071,0.067c-0.01,0.012 -0.041,0.023 -0.044,0.031c-0.015,0.037 -0.039,0.064 -0.082,0.082c-0.005,0.003 -0.009,0.025 -0.019,0.032c-0.008,0.006 -0.021,0.018 -0.024,0.024c-0.016,0.031 -0.041,0.061 -0.074,0.078c-0.005,0.002 -0.011,0.012 -0.017,0.018c-0.005,0.005 -0.02,0.012 -0.021,0.015c-0.005,0.022 -0.018,0.032 -0.038,0.041c-0.007,0.002 -0.034,0.031 -0.043,0.04c-0.024,0.042 -0.039,0.05 -0.067,0.073c-0.005,0.004 -0.007,0.014 -0.015,0.019c-0.004,0.004 -0.015,0.01 -0.016,0.013c-0.004,0.014 -0.017,0.022 -0.031,0.026c-0.002,0 -0.006,0.005 -0.009,0.007l0.034,0.047c0,0 0.003,0.001 0.004,-0.001c0.078,-0.073 0.181,-0.119 0.259,-0.199c0.09,-0.092 0.199,-0.198 0.351,-0.351c0.093,-0.094 0.18,-0.236 0.31,-0.369Z" style="fill:#8b1818;"/><path d="M3.813,3.076l-0.054,0.044l0.076,0.107l0.155,0.158l0.167,0.213l0.097,0.107l0.055,-0.044c-0.041,-0.05 -0.066,-0.099 -0.11,-0.15c-0.05,-0.057 -0.12,-0.117 -0.202,-0.213c-0.052,-0.059 -0.111,-0.139 -0.184,-0.222Z" style="fill:#e57676;"/><path d="M3.813,3.076l-0.054,0.044l0.076,0.107l0.155,0.158l0.167,0.213l0.097,0.107l0.055,-0.044c-0.041,-0.05 -0.066,-0.099 -0.11,-0.15c-0.05,-0.057 -0.12,-0.117 -0.202,-0.213c-0.052,-0.059 -0.111,-0.139 -0.184,-0.222Z" style="fill:#8b1818;"/><path d="M3.393,3.61l-0.046,0.053l0.081,0.087l0.159,0.118l0.176,0.168l0.1,0.082l0.046,-0.053c-0.043,-0.039 -0.071,-0.082 -0.117,-0.12c-0.051,-0.044 -0.122,-0.086 -0.208,-0.161c-0.053,-0.046 -0.115,-0.11 -0.191,-0.174Z" style="fill:#e57676;"/><path d="M3.393,3.61l-0.046,0.053l0.081,0.087l0.159,0.118l0.176,0.168l0.1,0.082l0.046,-0.053c-0.043,-0.039 -0.071,-0.082 -0.117,-0.12c-0.051,-0.044 -0.122,-0.086 -0.208,-0.161c-0.053,-0.046 -0.115,-0.11 -0.191,-0.174Z" style="fill:#8b1818;"/><path d="M3.643,3.279l-0.043,0.036l0.077,0.102l0.15,0.152l0.167,0.202l0.095,0.102l0.043,-0.036c-0.041,-0.047 -0.068,-0.094 -0.111,-0.142c-0.049,-0.055 -0.115,-0.112 -0.197,-0.204c-0.049,-0.057 -0.109,-0.133 -0.181,-0.212Z" style="fill:#e57676;"/><path d="M3.643,3.279l-0.043,0.036l0.077,0.102l0.15,0.152l0.167,0.202l0.095,0.102l0.043,-0.036c-0.041,-0.047 -0.068,-0.094 -0.111,-0.142c-0.049,-0.055 -0.115,-0.112 -0.197,-0.204c-0.049,-0.057 -0.109,-0.133 -0.181,-0.212Z" style="fill:#8b1818;"/><path d="M4.338,3.625l0.045,-0.034l-0.073,-0.104c-0.046,-0.055 -0.094,-0.107 -0.143,-0.159l-0.158,-0.209l-0.091,-0.106l-0.044,0.035c0.038,0.048 0.063,0.096 0.104,0.146c0.047,0.056 0.11,0.117 0.188,0.213c0.048,0.058 0.104,0.136 0.172,0.218Z" style="fill:#e57676;"/><path d="M4.338,3.625l0.045,-0.034l-0.073,-0.104c-0.046,-0.055 -0.094,-0.107 -0.143,-0.159l-0.158,-0.209l-0.091,-0.106l-0.044,0.035c0.038,0.048 0.063,0.096 0.104,0.146c0.047,0.056 0.11,0.117 0.188,0.213c0.048,0.058 0.104,0.136 0.172,0.218Z" style="fill:#8b1818;"/><path d="M4.172,3.777l0.042,-0.038l-0.079,-0.1l-0.152,-0.149l-0.169,-0.2l-0.097,-0.101l-0.042,0.037c0.041,0.046 0.069,0.093 0.113,0.14c0.049,0.054 0.116,0.111 0.2,0.202c0.051,0.055 0.111,0.131 0.184,0.209Z" style="fill:#e57676;"/><path d="M4.172,3.777l0.042,-0.038l-0.079,-0.1l-0.152,-0.149l-0.169,-0.2l-0.097,-0.101l-0.042,0.037c0.041,0.046 0.069,0.093 0.113,0.14c0.049,0.054 0.116,0.111 0.2,0.202c0.051,0.055 0.111,0.131 0.184,0.209Z" style="fill:#8b1818;"/><path d="M3.179,3.832l-0.032,0.041l0.086,0.082l0.16,0.116l0.183,0.16l0.103,0.078l0.033,-0.041c-0.014,-0.011 -0.026,-0.022 -0.038,-0.034c-0.028,-0.026 -0.053,-0.053 -0.085,-0.079c-0.053,-0.042 -0.123,-0.085 -0.212,-0.157c-0.054,-0.044 -0.12,-0.104 -0.198,-0.166Z" style="fill:#e57676;"/><path d="M3.179,3.832l-0.032,0.041l0.086,0.082l0.16,0.116l0.183,0.16l0.103,0.078l0.033,-0.041c-0.014,-0.011 -0.026,-0.022 -0.038,-0.034c-0.028,-0.026 -0.053,-0.053 -0.085,-0.079c-0.053,-0.042 -0.123,-0.085 -0.212,-0.157c-0.054,-0.044 -0.12,-0.104 -0.198,-0.166Z" style="fill:#8b1818;"/><path d="M3.985,3.977l0.035,-0.039l-0.093,-0.096l-0.173,-0.143l-0.198,-0.191l-0.111,-0.096l-0.034,0.038c0.047,0.044 0.082,0.089 0.133,0.134c0.057,0.052 0.131,0.106 0.228,0.192c0.058,0.054 0.129,0.126 0.213,0.201Z" style="fill:#e57676;"/><path d="M3.985,3.977l0.035,-0.039l-0.093,-0.096l-0.173,-0.143l-0.198,-0.191l-0.111,-0.096l-0.034,0.038c0.047,0.044 0.082,0.089 0.133,0.134c0.057,0.052 0.131,0.106 0.228,0.192c0.058,0.054 0.129,0.126 0.213,0.201Z" style="fill:#8b1818;"/><path d="M3.747,4.227l0.036,-0.037l-0.074,-0.085l-0.141,-0.124l-0.159,-0.168l-0.09,-0.083l-0.036,0.036c0.038,0.039 0.065,0.079 0.105,0.118c0.047,0.045 0.109,0.092 0.186,0.168c0.048,0.046 0.105,0.109 0.173,0.175Z" style="fill:#e57676;"/><path d="M3.747,4.227l0.036,-0.037l-0.074,-0.085l-0.141,-0.124l-0.159,-0.168l-0.09,-0.083l-0.036,0.036c0.038,0.039 0.065,0.079 0.105,0.118c0.047,0.045 0.109,0.092 0.186,0.168c0.048,0.046 0.105,0.109 0.173,0.175Z" style="fill:#8b1818;"/><g><path d="M2.936,3.953c-0.011,0.04 -0.074,0.076 -0.095,0.08c-0.16,0.036 -0.342,-0.013 -0.474,-0.145c-0.156,-0.156 -0.183,-0.304 -0.103,-0.483c-0.05,-0.093 -0.053,-0.285 0.02,-0.358c0.014,-0.014 -0.058,-0.089 0.038,-0.161c-0.087,-0.185 -0.011,-0.28 0.134,-0.425c0.145,-0.145 0.339,-0.278 0.551,-0.125c0.022,-0.12 0.27,-0.229 0.366,-0.04c0.178,-0.08 0.354,-0.08 0.51,0.076c0.132,0.132 0.181,0.313 0.145,0.474c-0.003,0.092 -0.124,0.208 -0.186,0.228c-0.028,0.008 -0.076,0.072 -0.089,0.092c-0.061,0.09 -0.053,0.121 -0.144,0.182c-0.04,0.027 -0.117,0.062 -0.172,0.09c0.004,0.039 -0.017,0.099 -0.048,0.13c0.003,0.091 -0.031,0.143 -0.103,0.216c-0.072,0.072 -0.165,0.105 -0.244,0.092c-0.004,0.035 -0.063,0.092 -0.106,0.077Z" style="fill:#493434;stroke:#a38686;stroke-width:0.04px;"/></g><path d="M2.791,3.22c0.147,-0.07 0.329,-0.008 0.404,0.138c0.076,0.146 0.018,0.32 -0.13,0.391c-0.148,0.07 -0.329,0.008 -0.405,-0.138c-0.076,-0.146 -0.018,-0.32 0.131,-0.391Z" style="fill:#a38686;"/><path d="M3.338,2.787c0.01,-0.14 0.102,-0.243 0.204,-0.229c0.103,0.014 0.178,0.139 0.168,0.279c-0.011,0.14 -0.102,0.243 -0.205,0.229c-0.103,-0.014 -0.177,-0.139 -0.167,-0.279Z" style="fill:#a38686;"/><path d="M3.12,2.357c0.017,-0.037 0.073,-0.047 0.124,-0.021c0.051,0.027 0.079,0.079 0.061,0.117c-0.018,0.038 -0.073,0.047 -0.125,0.02c-0.051,-0.026 -0.078,-0.078 -0.06,-0.116Z" style="fill:#a38686;"/><path d="M2.488,3.077c-0.049,-0 -0.09,-0.033 -0.092,-0.074c-0.003,-0.041 0.035,-0.073 0.084,-0.073c0.049,0 0.09,0.033 0.092,0.074c0.003,0.04 -0.035,0.074 -0.084,0.073Z" style="fill:#a38686;"/></g></g></g><g><g><path d="M4.343,5.961c0.182,-0.183 0.477,-0.185 0.657,-0.005c0.179,0.179 0.177,0.473 -0.006,0.656c-0.182,0.183 -0.477,0.185 -0.656,0.006c-0.18,-0.18 -0.178,-0.475 0.005,-0.657Z" style="fill:#484662;"/><path d="M4.361,6.252c-0.002,0.115 0.134,0.21 0.304,0.212c0.005,0 0.011,0 0.016,0c0.164,-0.004 0.296,-0.094 0.299,-0.206c-0.028,0.087 -0.16,0.155 -0.313,0.154c-0.154,-0.002 -0.282,-0.074 -0.306,-0.16Zm0.436,0.135l0.183,-0.129l-0.094,-0.068l-0.103,0.053l0.014,0.144Zm-0.255,-0.01l-0.181,-0.127l0.096,-0.069l0.102,0.052l-0.017,0.144Z" style="fill:none;stroke:#fff;stroke-width:0.07px;"/></g><g><path d="M5.152,5.152c0.183,-0.183 0.477,-0.185 0.657,-0.005c0.179,0.18 0.177,0.474 -0.006,0.656c-0.182,0.183 -0.476,0.185 -0.656,0.006c-0.18,-0.18 -0.178,-0.474 0.005,-0.657Z" style="fill:#484662;"/><path d="M5.626,5.252c-0.086,-0.087 -0.24,-0.072 -0.343,0.031c-0.103,0.103 -0.118,0.257 -0.031,0.343c0.05,0.05 0.128,0.068 0.207,0.048l0.082,0.129l-0,-0.166c0.019,-0.012 0.037,-0.026 0.053,-0.043c0.103,-0.103 0.118,-0.257 0.032,-0.342Z" style="fill:none;stroke:#fff;stroke-width:0.07px;"/></g><g><path d="M5.961,4.343c0.182,-0.183 0.477,-0.185 0.657,-0.005c0.179,0.179 0.177,0.474 -0.006,0.656c-0.183,0.183 -0.477,0.185 -0.656,0.006c-0.18,-0.18 -0.178,-0.475 0.005,-0.657Z" style="fill:#484662;"/><g><path d="M6.456,4.369c-0.063,-0.063 -0.164,-0.063 -0.227,-0l-0.242,0.242c-0.063,0.063 -0.063,0.164 -0,0.227l0.13,0.13c0.063,0.063 0.165,0.063 0.227,0l0.242,-0.242c0.063,-0.062 0.063,-0.164 0,-0.226l-0.13,-0.131Zm-0.049,0.048c-0.035,-0.036 -0.094,-0.036 -0.13,-0l-0.242,0.242c-0.036,0.036 -0.036,0.094 -0,0.131l0.131,0.13c0.035,0.037 0.094,0.037 0.13,0l0.242,-0.242c0.036,-0.036 0.036,-0.094 0,-0.131l-0.131,-0.13Z" style="fill:#fff;"/><path d="M6.36,4.743l-0.359,-0.051l0.309,-0.308l0.05,0.359Z" style="fill:none;stroke:#fff;stroke-width:0.07px;"/></g></g></g><path d="M1.63,1.63c0.047,-0.047 0.125,-0.045 0.174,0.005c0.05,0.049 0.052,0.127 0.005,0.174c-0.047,0.047 -0.125,0.045 -0.174,-0.005c-0.05,-0.049 -0.052,-0.127 -0.005,-0.174Z" style="fill:#fff;"/></g><g><g transform="matrix(0.66577,-0.66577,0.707107,0.707107,-2.71962,4.40676)"><text x="4.079px" y="5.774px" style="font-family:'ShowcardGothic-Reg', 'Showcard Gothic', fantasy;font-size:1.024px;fill:#fff;">MMM</text></g></g></g></g></svg>