<?xml version="1.0" encoding="UTF-8" standalone="no"?><!DOCTYPE svg PUBLIC "-//W3C//DTD SVG 1.1//EN" "http://www.w3.org/Graphics/SVG/1.1/DTD/svg11.dtd"><svg width="100%" height="100%" viewBox="0 0 8 8" version="1.1" xmlns="http://www.w3.org/2000/svg" xmlns:xlink="http://www.w3.org/1999/xlink" xml:space="preserve" xmlns:serif="http://www.serif.com/" style="fill-rule:evenodd;clip-rule:evenodd;stroke-linecap:round;stroke-linejoin:round;stroke-miterlimit:1.5;"><g><g><path d="M6.1,1.232c0,-0.58 -0.471,-1.051 -1.051,-1.05l-2.098,-0c-0.58,-0.001 -1.051,0.47 -1.051,1.05l0,5.536c-0,0.58 0.471,1.051 1.051,1.05l2.098,0c0.58,0.001 1.051,-0.47 1.051,-1.05l-0,-5.536Z" style="stroke:#000;stroke-width:0.28px;"/><path d="M5.892,1.389c0,-0.522 -0.424,-0.946 -0.946,-0.946l-1.892,-0c-0.522,-0 -0.946,0.424 -0.946,0.946l-0,5.224c-0,0.522 0.423,0.945 0.946,0.946l1.892,-0c0.523,-0.001 0.946,-0.424 0.946,-0.946l0,-5.224Z" style="stroke:#ebebeb;stroke-width:0.27px;"/><path d="M5.892,1.389c0,-0.522 -0.424,-0.946 -0.946,-0.946l-1.892,-0c-0.522,-0 -0.946,0.424 -0.946,0.946l-0,5.224c-0,0.522 0.423,0.945 0.946,0.946l1.892,-0c0.523,-0.001 0.946,-0.424 0.946,-0.946l0,-5.224Z" style="fill:none;stroke:#898d9b;stroke-width:0.08px;"/><g><g><path d="M2.871,5.608c0.255,-0.001 0.462,0.203 0.462,0.455c-0,0.25 -0.207,0.453 -0.462,0.453c-0.255,0.001 -0.462,-0.203 -0.462,-0.453c0,-0.252 0.207,-0.456 0.462,-0.455Z" style="fill:#484662;"/><path d="M2.68,5.823c-0.081,0.079 -0.053,0.24 0.065,0.36c0.003,0.004 0.007,0.008 0.011,0.012c0.117,0.111 0.272,0.141 0.352,0.064c-0.08,0.042 -0.22,-0.003 -0.326,-0.11c-0.106,-0.109 -0.145,-0.249 -0.102,-0.326Zm0.21,0.399l0.218,0.037l-0.018,-0.113l-0.109,-0.034l-0.091,0.11Zm-0.17,-0.185l-0.038,-0.215l0.115,0.019l0.035,0.107l-0.112,0.089Z" style="fill:none;stroke:#fff;stroke-width:0.07px;"/></g><g><path d="M4,5.608c0.255,-0 0.462,0.203 0.462,0.455c-0.001,0.25 -0.207,0.454 -0.462,0.453c-0.255,0.001 -0.461,-0.203 -0.462,-0.453c0,-0.252 0.207,-0.455 0.462,-0.455Z" style="fill:#484662;"/><path d="M4.261,6.008c0.001,-0.12 -0.117,-0.217 -0.261,-0.217c-0.144,-0 -0.262,0.097 -0.261,0.217c0,0.07 0.042,0.137 0.111,0.178l-0.033,0.147l0.116,-0.115c0.022,0.005 0.044,0.007 0.067,0.007c0.144,-0 0.262,-0.097 0.261,-0.217Z" style="fill:none;stroke:#fff;stroke-width:0.07px;"/></g><g><path d="M5.129,5.608c0.255,-0.001 0.462,0.203 0.462,0.455c-0,0.25 -0.207,0.454 -0.462,0.453c-0.255,0 -0.462,-0.203 -0.462,-0.453c0,-0.252 0.207,-0.456 0.462,-0.455Z" style="fill:#484662;"/><g><path d="M5.456,5.971c0,-0.088 -0.07,-0.158 -0.158,-0.158l-0.338,-0c-0.088,-0 -0.158,0.07 -0.158,0.158l-0,0.182c-0,0.088 0.071,0.159 0.158,0.158l0.338,0c0.087,0.001 0.158,-0.07 0.158,-0.158l0,-0.182Zm-0.067,-0c0,-0.05 -0.041,-0.091 -0.091,-0.091l-0.338,-0c-0.05,-0 -0.091,0.04 -0.091,0.091l0,0.182c-0.001,0.051 0.04,0.092 0.091,0.091l0.338,0c0.05,0 0.091,-0.04 0.091,-0.091l-0,-0.182Z" style="fill:#fff;"/><path d="M5.128,6.165l-0.215,-0.286l0.431,0.001l-0.216,0.285Z" style="fill:none;stroke:#fff;stroke-width:0.07px;"/></g></g></g><path d="M4,0.692c0.066,0 0.119,0.056 0.118,0.125c0.001,0.069 -0.052,0.125 -0.118,0.125c-0.066,0 -0.119,-0.056 -0.118,-0.125c-0.001,-0.069 0.052,-0.125 0.118,-0.125Z" style="fill:#fff;"/><g><g><path d="M3.587,4.535c-0.004,0.069 -0.011,0.195 -0.019,0.378c-0.004,0.112 -0.008,0.239 -0.01,0.38l-0.168,-0l-0.005,-0.233l-0.164,0.251l-0.177,-0.249l-0.004,0.231l-0.168,-0c-0.002,-0.075 -0.006,-0.203 -0.012,-0.382c-0.004,-0.103 -0.012,-0.229 -0.024,-0.376l0.266,0c0.01,0.024 0.026,0.063 0.048,0.116c0.018,0.039 0.041,0.084 0.071,0.136c0.014,-0.023 0.038,-0.069 0.074,-0.139c0.012,-0.026 0.029,-0.064 0.049,-0.113l0.243,0Z" style="fill:#fff;fill-rule:nonzero;"/><path d="M4.376,4.535c-0.004,0.069 -0.011,0.195 -0.019,0.378c-0.005,0.112 -0.008,0.239 -0.01,0.38l-0.168,-0l-0.005,-0.233l-0.164,0.251l-0.177,-0.249l-0.004,0.231l-0.168,-0c-0.002,-0.075 -0.006,-0.203 -0.012,-0.382c-0.005,-0.103 -0.012,-0.229 -0.024,-0.376l0.266,0c0.01,0.024 0.026,0.063 0.048,0.116c0.018,0.039 0.041,0.084 0.071,0.136c0.014,-0.023 0.038,-0.069 0.074,-0.139c0.012,-0.026 0.029,-0.064 0.048,-0.113l0.244,0Z" style="fill:#fff;fill-rule:nonzero;"/><path d="M5.165,4.535c-0.005,0.069 -0.011,0.195 -0.019,0.378c-0.005,0.112 -0.008,0.239 -0.01,0.38l-0.168,-0l-0.005,-0.233l-0.164,0.251l-0.177,-0.249l-0.005,0.231l-0.167,-0c-0.002,-0.075 -0.006,-0.203 -0.012,-0.382c-0.005,-0.103 -0.013,-0.229 -0.024,-0.376l0.266,0c0.009,0.024 0.025,0.063 0.048,0.116c0.017,0.039 0.041,0.084 0.071,0.136c0.013,-0.023 0.038,-0.069 0.073,-0.139c0.013,-0.026 0.029,-0.064 0.049,-0.113l0.244,0Z" style="fill:#fff;fill-rule:nonzero;"/></g></g><g><circle cx="4" cy="2.772" r="1.563" style="fill:#ffd700;"/><g><g><path d="M3.032,2.946l1.936,-0.019l-0.103,0.419c-0.003,0.07 -0.006,0.14 -0.019,0.21c-0.011,0.047 -0.02,0.095 -0.026,0.143l-0.038,0.295l-1.564,-0l-0.022,-0.172l-0.061,-0.285c-0.011,-0.075 -0.02,-0.158 -0.028,-0.248l-0.075,-0.343Z" style="stroke:#030303;stroke-width:0.05px;"/><path d="M4.783,4.019c0.002,-0 0.004,-0.003 0.004,-0.003l0.009,-0.057c-0.012,-0.003 -0.026,-0.011 -0.036,-0.008c-0.028,0.007 -0.051,0.002 -0.073,-0.013c-0.007,-0.005 -0.045,-0.007 -0.063,-0.005c-0.033,0.004 -0.024,0.004 -0.058,0c-0.021,0.006 -0.068,0.01 -0.081,0.018c-0.024,0.016 -0.051,0.012 -0.078,0.004c-0.013,-0.004 -0.054,-0.003 -0.064,-0c-0.029,0.008 -0.051,0.012 -0.085,0.004c-0.012,-0.003 -0.051,-0.006 -0.066,-0.004c-0.041,0.006 -0.071,0.01 -0.117,-0.004c-0.019,0.002 -0.055,-0.014 -0.064,-0.01c-0.045,0.018 -0.088,0.021 -0.14,-0c-0.007,-0.003 -0.029,0.013 -0.044,0.01c-0.012,-0.002 -0.033,-0.003 -0.041,-0c-0.039,0.012 -0.086,0.016 -0.129,0.003c-0.005,-0.002 -0.019,0.001 -0.028,0.001c-0.011,0 -0.028,-0.006 -0.032,-0.004c-0.023,0.012 -0.043,0.011 -0.068,0.001c-0.007,-0.003 -0.055,-0.001 -0.07,-0.001c-0.055,0.014 -0.075,0.009 -0.119,0.004c-0.009,-0.001 -0.019,0.005 -0.029,0.004c-0.007,-0.001 -0.021,-0.005 -0.025,-0.003c-0.015,0.007 -0.033,0.004 -0.048,-0.004c-0.002,-0.001 -0.009,-0.001 -0.014,-0.001l-0.011,0.065c-0,-0 0.002,0.003 0.004,0.003c0.129,0.003 0.256,0.049 0.39,0.048c0.155,-0.001 0.338,0 0.598,0c0.159,-0 0.354,-0.046 0.578,-0.048Z" style="fill:#030303;"/><g><path d="M3.138,3.16c-0.043,0.025 -0.127,0.002 -0.149,-0.013c-0.167,-0.105 -0.28,-0.303 -0.28,-0.528c0,-0.266 0.104,-0.416 0.323,-0.5c0.037,-0.122 0.198,-0.288 0.323,-0.288c0.024,0 0.026,-0.126 0.169,-0.105c0.083,-0.232 0.23,-0.249 0.476,-0.249c0.246,0 0.525,0.053 0.575,0.364c0.122,-0.083 0.426,0.035 0.346,0.278c0.22,0.084 0.37,0.234 0.37,0.5c-0,0.225 -0.113,0.423 -0.28,0.528c-0.081,0.076 -0.284,0.072 -0.353,0.036c-0.031,-0.016 -0.126,-0.003 -0.154,0.002c-0.128,0.026 -0.148,0.059 -0.277,0.033c-0.057,-0.011 -0.152,-0.046 -0.223,-0.071c-0.03,0.038 -0.099,0.071 -0.153,0.071c-0.074,0.08 -0.148,0.095 -0.271,0.096c-0.122,0.001 -0.23,-0.051 -0.287,-0.129c-0.033,0.026 -0.131,0.024 -0.155,-0.025Z" style="fill:#030303;"/></g></g><g><path d="M3.109,2.937l1.775,-0.018l-0.095,0.393c-0.002,0.065 -0.006,0.131 -0.017,0.196c-0.01,0.045 -0.018,0.089 -0.024,0.134l-0.035,0.277l-1.434,-0l-0.02,-0.161l-0.055,-0.268c-0.011,-0.069 -0.019,-0.148 -0.026,-0.232l-0.069,-0.321Z" style="fill:#e57676;fill-opacity:0.98;stroke:#8b1818;stroke-width:0.05px;"/><path d="M3.311,3.122l-0.054,0.006l0.006,0.134l0.035,0.22l0.022,0.273l0.02,0.145l0.053,-0.006c-0.006,-0.065 -0.002,-0.122 -0.01,-0.189c-0.009,-0.075 -0.029,-0.165 -0.044,-0.293c-0.009,-0.078 -0.015,-0.179 -0.028,-0.29Z" style="fill:#e57676;"/><path d="M3.311,3.122l-0.054,0.006l0.006,0.134l0.035,0.22l0.022,0.273l0.02,0.145l0.053,-0.006c-0.006,-0.065 -0.002,-0.122 -0.01,-0.189c-0.009,-0.075 -0.029,-0.165 -0.044,-0.293c-0.009,-0.078 -0.015,-0.179 -0.028,-0.29Z" style="fill:#8b1818;"/><path d="M4.714,3.942c0.002,0 0.004,-0.002 0.004,-0.002l0.007,-0.054c-0.011,-0.003 -0.023,-0.01 -0.032,-0.008c-0.025,0.007 -0.047,0.003 -0.066,-0.011c-0.007,-0.005 -0.042,-0.007 -0.059,-0.005c-0.029,0.003 -0.022,0.003 -0.052,-0c-0.02,0.006 -0.064,0.009 -0.075,0.017c-0.022,0.014 -0.047,0.011 -0.071,0.003c-0.013,-0.003 -0.05,-0.002 -0.059,0c-0.027,0.008 -0.047,0.012 -0.078,0.004c-0.011,-0.003 -0.047,-0.006 -0.061,-0.004c-0.037,0.006 -0.065,0.01 -0.107,-0.003c-0.018,0.001 -0.05,-0.014 -0.059,-0.01c-0.04,0.017 -0.08,0.019 -0.128,0c-0.006,-0.002 -0.026,0.012 -0.04,0.01c-0.011,-0.002 -0.03,-0.003 -0.038,-0.001c-0.036,0.012 -0.078,0.016 -0.118,0.003c-0.005,-0.001 -0.018,0.001 -0.027,0.001c-0.009,0.001 -0.025,-0.005 -0.028,-0.004c-0.021,0.012 -0.039,0.01 -0.062,0.002c-0.007,-0.003 -0.051,-0.002 -0.065,-0.002c-0.051,0.014 -0.069,0.009 -0.109,0.004c-0.007,-0.001 -0.017,0.006 -0.027,0.004c-0.005,-0.001 -0.018,-0.004 -0.022,-0.003c-0.014,0.007 -0.03,0.005 -0.044,-0.003c-0.002,-0.001 -0.009,-0.001 -0.013,-0.002l-0.01,0.062c-0,-0 0.002,0.002 0.003,0.002c0.119,0.004 0.235,0.046 0.359,0.045c0.141,-0 0.309,0.001 0.547,0c0.146,0 0.324,-0.042 0.53,-0.045Z" style="fill:#e57676;"/><path d="M4.714,3.942c0.002,0 0.004,-0.002 0.004,-0.002l0.007,-0.054c-0.011,-0.003 -0.023,-0.01 -0.032,-0.008c-0.025,0.007 -0.047,0.003 -0.066,-0.011c-0.007,-0.005 -0.042,-0.007 -0.059,-0.005c-0.029,0.003 -0.022,0.003 -0.052,-0c-0.02,0.006 -0.064,0.009 -0.075,0.017c-0.022,0.014 -0.047,0.011 -0.071,0.003c-0.013,-0.003 -0.05,-0.002 -0.059,0c-0.027,0.008 -0.047,0.012 -0.078,0.004c-0.011,-0.003 -0.047,-0.006 -0.061,-0.004c-0.037,0.006 -0.065,0.01 -0.107,-0.003c-0.018,0.001 -0.05,-0.014 -0.059,-0.01c-0.04,0.017 -0.08,0.019 -0.128,0c-0.006,-0.002 -0.026,0.012 -0.04,0.01c-0.011,-0.002 -0.03,-0.003 -0.038,-0.001c-0.036,0.012 -0.078,0.016 -0.118,0.003c-0.005,-0.001 -0.018,0.001 -0.027,0.001c-0.009,0.001 -0.025,-0.005 -0.028,-0.004c-0.021,0.012 -0.039,0.01 -0.062,0.002c-0.007,-0.003 -0.051,-0.002 -0.065,-0.002c-0.051,0.014 -0.069,0.009 -0.109,0.004c-0.007,-0.001 -0.017,0.006 -0.027,0.004c-0.005,-0.001 -0.018,-0.004 -0.022,-0.003c-0.014,0.007 -0.03,0.005 -0.044,-0.003c-0.002,-0.001 -0.009,-0.001 -0.013,-0.002l-0.01,0.062c-0,-0 0.002,0.002 0.003,0.002c0.119,0.004 0.235,0.046 0.359,0.045c0.141,-0 0.309,0.001 0.547,0c0.146,0 0.324,-0.042 0.53,-0.045Z" style="fill:#8b1818;"/><path d="M4.575,3.095l-0.077,-0.008l-0.024,0.14l-0.003,0.237l-0.035,0.289l-0.007,0.155l0.077,0.008c0.007,-0.069 0.026,-0.126 0.031,-0.198c0.006,-0.081 -0.002,-0.179 0.008,-0.315c0.007,-0.084 0.023,-0.19 0.03,-0.308Z" style="fill:#e57676;"/><path d="M4.575,3.095l-0.077,-0.008l-0.024,0.14l-0.003,0.237l-0.035,0.289l-0.007,0.155l0.077,0.008c0.007,-0.069 0.026,-0.126 0.031,-0.198c0.006,-0.081 -0.002,-0.179 0.008,-0.315c0.007,-0.084 0.023,-0.19 0.03,-0.308Z" style="fill:#8b1818;"/><path d="M3.83,3.181l-0.076,0.006l-0.005,0.127l0.031,0.211l0.007,0.261l0.015,0.138l0.076,-0.005c-0.003,-0.062 0.008,-0.116 0.003,-0.18c-0.006,-0.072 -0.028,-0.158 -0.037,-0.28c-0.005,-0.076 -0.005,-0.171 -0.014,-0.278Z" style="fill:#e57676;"/><path d="M3.83,3.181l-0.076,0.006l-0.005,0.127l0.031,0.211l0.007,0.261l0.015,0.138l0.076,-0.005c-0.003,-0.062 0.008,-0.116 0.003,-0.18c-0.006,-0.072 -0.028,-0.158 -0.037,-0.28c-0.005,-0.076 -0.005,-0.171 -0.014,-0.278Z" style="fill:#8b1818;"/><path d="M4.284,3.12l-0.061,-0.005l-0.02,0.136l-0.001,0.229l-0.028,0.28l-0.005,0.15l0.061,0.005c0.006,-0.067 0.02,-0.123 0.025,-0.192c0.004,-0.078 -0.003,-0.173 0.006,-0.304c0.005,-0.081 0.017,-0.184 0.023,-0.299Z" style="fill:#e57676;"/><path d="M4.284,3.12l-0.061,-0.005l-0.02,0.136l-0.001,0.229l-0.028,0.28l-0.005,0.15l0.061,0.005c0.006,-0.067 0.02,-0.123 0.025,-0.192c0.004,-0.078 -0.003,-0.173 0.006,-0.304c0.005,-0.081 0.017,-0.184 0.023,-0.299Z" style="fill:#8b1818;"/><path d="M4.556,3.911l0.062,0.008l0.025,-0.134c0.006,-0.077 0.009,-0.153 0.011,-0.23l0.04,-0.278l0.013,-0.15l-0.062,-0.007c-0.008,0.066 -0.026,0.121 -0.033,0.19c-0.008,0.078 -0.005,0.173 -0.019,0.304c-0.009,0.081 -0.026,0.183 -0.037,0.297Z" style="fill:#e57676;"/><path d="M4.556,3.911l0.062,0.008l0.025,-0.134c0.006,-0.077 0.009,-0.153 0.011,-0.23l0.04,-0.278l0.013,-0.15l-0.062,-0.007c-0.008,0.066 -0.026,0.121 -0.033,0.19c-0.008,0.078 -0.005,0.173 -0.019,0.304c-0.009,0.081 -0.026,0.183 -0.037,0.297Z" style="fill:#8b1818;"/><path d="M4.309,3.9l0.061,0.003l0.018,-0.136l-0.002,-0.229l0.023,-0.28l0.003,-0.15l-0.062,-0.004c-0.004,0.067 -0.018,0.123 -0.021,0.192c-0.003,0.078 0.005,0.173 -0.001,0.305c-0.004,0.081 -0.015,0.184 -0.019,0.299Z" style="fill:#e57676;"/><path d="M4.309,3.9l0.061,0.003l0.018,-0.136l-0.002,-0.229l0.023,-0.28l0.003,-0.15l-0.062,-0.004c-0.004,0.067 -0.018,0.123 -0.021,0.192c-0.003,0.078 0.005,0.173 -0.001,0.305c-0.004,0.081 -0.015,0.184 -0.019,0.299Z" style="fill:#8b1818;"/><path d="M3.49,3.188l-0.057,0.006l0.003,0.128l0.035,0.209l0.018,0.261l0.019,0.138l0.058,-0.007c-0.002,-0.018 -0.003,-0.036 -0.003,-0.054c-0.001,-0.041 -0,-0.08 -0.005,-0.125c-0.008,-0.072 -0.029,-0.157 -0.042,-0.28c-0.009,-0.074 -0.013,-0.17 -0.026,-0.276Z" style="fill:#e57676;"/><path d="M3.49,3.188l-0.057,0.006l0.003,0.128l0.035,0.209l0.018,0.261l0.019,0.138l0.058,-0.007c-0.002,-0.018 -0.003,-0.036 -0.003,-0.054c-0.001,-0.041 -0,-0.08 -0.005,-0.125c-0.008,-0.072 -0.029,-0.157 -0.042,-0.28c-0.009,-0.074 -0.013,-0.17 -0.026,-0.276Z" style="fill:#8b1818;"/><path d="M4.007,3.91l0.057,-0.003l0.002,-0.144l-0.023,-0.239l-0.006,-0.296l-0.011,-0.157l-0.056,0.002c0.002,0.071 -0.006,0.131 -0.002,0.203c0.005,0.083 0.021,0.18 0.028,0.32c0.004,0.084 0.004,0.193 0.011,0.314Z" style="fill:#e57676;"/><path d="M4.007,3.91l0.057,-0.003l0.002,-0.144l-0.023,-0.239l-0.006,-0.296l-0.011,-0.157l-0.056,0.002c0.002,0.071 -0.006,0.131 -0.002,0.203c0.005,0.083 0.021,0.18 0.028,0.32c0.004,0.084 0.004,0.193 0.011,0.314Z" style="fill:#8b1818;"/><path d="M3.625,3.919l0.057,-0.001l0.009,-0.12l-0.014,-0.202l0.007,-0.248l-0.005,-0.132l-0.056,0.001c-0.001,0.058 -0.011,0.109 -0.01,0.17c0.001,0.069 0.013,0.151 0.014,0.268c0.001,0.071 -0.004,0.162 -0.002,0.264Z" style="fill:#e57676;"/><path d="M3.625,3.919l0.057,-0.001l0.009,-0.12l-0.014,-0.202l0.007,-0.248l-0.005,-0.132l-0.056,0.001c-0.001,0.058 -0.011,0.109 -0.01,0.17c0.001,0.069 0.013,0.151 0.014,0.268c0.001,0.071 -0.004,0.162 -0.002,0.264Z" style="fill:#8b1818;"/><g><path d="M3.206,3.094c-0.04,0.023 -0.117,0.002 -0.136,-0.01c-0.154,-0.095 -0.257,-0.27 -0.257,-0.471c0,-0.237 0.094,-0.37 0.296,-0.445c0.034,-0.108 0.181,-0.256 0.296,-0.256c0.022,-0 0.024,-0.112 0.155,-0.094c0.077,-0.206 0.21,-0.221 0.436,-0.221c0.226,0 0.482,0.047 0.527,0.324c0.112,-0.074 0.39,0.031 0.318,0.247c0.201,0.075 0.338,0.208 0.338,0.445c0,0.201 -0.103,0.376 -0.256,0.471c-0.075,0.067 -0.26,0.063 -0.324,0.031c-0.028,-0.014 -0.115,-0.003 -0.141,0.002c-0.117,0.023 -0.135,0.052 -0.254,0.03c-0.052,-0.01 -0.14,-0.042 -0.204,-0.063c-0.028,0.033 -0.091,0.063 -0.14,0.063c-0.068,0.071 -0.136,0.084 -0.248,0.085c-0.113,0.001 -0.211,-0.045 -0.264,-0.115c-0.03,0.023 -0.12,0.021 -0.142,-0.023Z" style="fill:#493434;stroke:#a38686;stroke-width:0.05px;"/></g><path d="M3.664,2.428c0.17,0.059 0.264,0.244 0.209,0.412c-0.054,0.168 -0.236,0.257 -0.407,0.198c-0.169,-0.059 -0.263,-0.244 -0.208,-0.412c0.054,-0.169 0.236,-0.257 0.406,-0.198Z" style="fill:#a38686;"/><path d="M4.43,2.515c0.117,-0.099 0.269,-0.107 0.338,-0.019c0.07,0.089 0.03,0.241 -0.087,0.339c-0.117,0.099 -0.269,0.107 -0.338,0.018c-0.07,-0.088 -0.03,-0.24 0.087,-0.338Z" style="fill:#a38686;"/><path d="M4.595,2.022c0.043,-0.015 0.094,0.02 0.114,0.079c0.019,0.059 -0,0.119 -0.044,0.135c-0.044,0.015 -0.094,-0.02 -0.113,-0.079c-0.02,-0.059 -0,-0.119 0.043,-0.135Z" style="fill:#a38686;"/><path d="M3.54,2.09c-0.038,-0.037 -0.044,-0.094 -0.014,-0.127c0.03,-0.033 0.085,-0.028 0.123,0.009c0.038,0.037 0.044,0.093 0.014,0.126c-0.03,0.033 -0.085,0.029 -0.123,-0.008Z" style="fill:#a38686;"/></g></g></g></g></g></svg>